<svg xmlns="http://www.w3.org/2000/svg" width="80" height="80" viewBox="0 0 80 80">
  <g id="Grupo_1181249" data-name="Grupo 1181249" transform="translate(-705.629 -1685)">
    <g id="Grupo_1178970" data-name="Grupo 1178970" transform="translate(705.629 1685)">
      <path id="Sustracción_110" data-name="Sustracción 110" d="M80,80h0L32.943,80l-1.885-4.512H5.651L3.767,80H0V0H48.35l1.883,4.51H75.644L77.528,0H80V80Z" transform="translate(0)" fill="#ffd470"/>
    </g>
    <path id="Trazado_998456" data-name="Trazado 998456" d="M-3,0H18.647l2.824,6.588H-.176Z" transform="translate(763.217 1685)" fill="#19538d"/>
    <g id="surface1" transform="translate(719.636 1699.007)">
      <path id="Trazado_999380" data-name="Trazado 999380" d="M49.641,8.529H38.99a.762.762,0,1,0,0,1.523H49.641a.823.823,0,0,1,.822.822V40.2a.823.823,0,0,1-.822.822H2.345a.822.822,0,0,1-.822-.822V10.874a.822.822,0,0,1,.822-.822H19.076v1.523H3.808a.761.761,0,0,0-.762.762V32.458a.762.762,0,1,0,1.523,0V13.1H19.076v4.085l-3.26,1.558a.767.767,0,0,0-.433.687V31.847a.762.762,0,0,0,.433.687l9.849,4.706a.772.772,0,0,0,.657,0l5.537-2.646A.762.762,0,1,0,31.2,33.22l-4.447,2.125V24.614l8.326-3.978V31.367l-1.131.54a.762.762,0,1,0,.656,1.374l1.565-.747a.762.762,0,0,0,.433-.687V19.428a.766.766,0,0,0-.433-.687l-3.26-1.558V13.1H47.417V37.974H4.569V35.707a.762.762,0,0,0-1.523,0v3.029a.761.761,0,0,0,.762.762H48.179a.761.761,0,0,0,.762-.762v-26.4a.761.761,0,0,0-.762-.762H32.91V10.052h2.83a.762.762,0,1,0,0-1.523H32.91V7.006h6.828a.761.761,0,0,0,.762-.762V4.438a2.285,2.285,0,1,0-1.523,0V5.483H32.149a.761.761,0,0,0-.762.762V8.529H26.755V4.438a2.285,2.285,0,1,0-1.523,0V8.529H20.6V6.244a.761.761,0,0,0-.762-.762H13.009V4.438a2.285,2.285,0,1,0-1.523,0V6.244a.761.761,0,0,0,.762.762h6.828V8.529H2.345A2.347,2.347,0,0,0,0,10.874V40.2a2.347,2.347,0,0,0,2.345,2.345h16.51a7.258,7.258,0,0,1-2.724,4.874H12.9a2.285,2.285,0,1,0,0,4.569h26.2a2.285,2.285,0,1,0,0-4.569H35.858a7.329,7.329,0,0,1-2.725-4.874H49.641A2.347,2.347,0,0,0,51.986,40.2V10.874A2.347,2.347,0,0,0,49.641,8.529Zm-9.9-7.006a.762.762,0,1,1-.762.762A.762.762,0,0,1,39.739,1.523Zm-13.745,0a.762.762,0,1,1-.762.762A.762.762,0,0,1,25.993,1.523Zm-13.745,0a.762.762,0,1,1-.762.762A.762.762,0,0,1,12.248,1.523ZM20.6,13.1h4.633v1.144L20.6,16.456Zm13.477,6.33-8.082,3.861-8.082-3.861,8.082-3.862Zm-17.17,1.208,8.326,3.978V35.345l-8.326-3.978Zm14.482-4.18-4.633-2.213V13.1h4.633Zm0-6.4v1.523H26.755V10.052Zm-6.156,0v1.523H20.6V10.052ZM39.853,49.7a.762.762,0,0,1-.762.762H12.9a.762.762,0,1,1,0-1.523h26.2A.762.762,0,0,1,39.853,49.7Zm-6.179-2.285H18.313a8.588,8.588,0,0,0,2.073-4.874H31.6A8.588,8.588,0,0,0,33.673,47.417Zm0,0" fill="#19538d"/>
    </g>
  </g>
</svg>
