<svg xmlns="http://www.w3.org/2000/svg" width="69.323" height="69.323" viewBox="0 0 69.323 69.323">
  <g id="img28" transform="translate(-915.711 -7156)">
    <rect id="Rectangle_456226" data-name="Rectangle 456226" width="69.323" height="69.323" transform="translate(915.711 7156)" fill="#19538d"/>
    <path id="Path_999515" data-name="Path 999515" d="M40.473,26.519a12.189,12.189,0,1,0,.83,23.91v4.545h-27V22.136h4.561v.453a1.447,1.447,0,0,0,1.447,1.447H35.3a1.447,1.447,0,0,0,1.447-1.447v-.453H41.3v2.886ZM17.092,35.261h7.562a.723.723,0,0,0,0-1.447H17.092a.723.723,0,0,0,0,1.447Zm0,9.208h7.562a.723.723,0,1,0,0-1.447H17.092a.723.723,0,0,0,0,1.447Zm0,9.208h17.1a.723.723,0,0,0,0-1.447h-17.1a.723.723,0,1,0,0,1.447Zm0-21.486h9.827a.723.723,0,1,0,0-1.447H17.092a.723.723,0,1,0,0,1.447Zm0,9.208h7.562a.723.723,0,0,0,0-1.447H17.092a.723.723,0,0,0,0,1.447Zm9.375-15.675H17.544a.452.452,0,0,0-.452.452V27.9a.452.452,0,0,0,.452.452h8.923a.452.452,0,0,0,.452-.452V26.178a.452.452,0,0,0-.452-.452ZM17.092,38.331h7.562a.723.723,0,1,0,0-1.447H17.092a.723.723,0,1,0,0,1.447Zm0,12.278H29.934a.723.723,0,0,0,0-1.447H17.092a.723.723,0,0,0,0,1.447Zm0-3.069h7.562a.723.723,0,1,0,0-1.447H17.092a.723.723,0,1,0,0,1.447ZM42.75,22.476V21.413a.723.723,0,0,0-.723-.723H36.742V18.706h6.045a1.949,1.949,0,0,1,1.945,1.945v1.007h-.286a2.17,2.17,0,0,0-1.7.817ZM18.865,20.69H13.581a.723.723,0,0,0-.723.723V55.7a.723.723,0,0,0,.723.723H42.026a.723.723,0,0,0,.723-.723V50a12.142,12.142,0,0,0,1.983-.944v7.405A1.95,1.95,0,0,1,42.788,58.4H12.822a1.95,1.95,0,0,1-1.948-1.948v-35.8a1.95,1.95,0,0,1,1.948-1.945h6.043Zm1.447-2.708a.452.452,0,0,1,.452-.452h3.826a3.308,3.308,0,0,1,6.431,0h3.823a.452.452,0,0,1,.452.452v4.155a.452.452,0,0,1-.452.452H20.764a.452.452,0,0,1-.452-.452Zm7.492.681a.949.949,0,1,0-.948-.951A.954.954,0,0,0,27.8,18.663Zm16.114,10.6a10.678,10.678,0,1,1-4.2-1.381l-2.185,3.939a2.17,2.17,0,1,0,3.8,2.105ZM37.137,39.5l-2.4-2.4a1.593,1.593,0,1,0-2.253,2.253l3.529,3.532a1.594,1.594,0,0,0,2.253,0c2.128-2.128,4.231-4.279,6.349-6.417a1.591,1.591,0,0,0-2.256-2.244Zm2.928-6.283a.723.723,0,0,1-1.265-.7l5.014-9.04a.724.724,0,0,1,.633-.372H54.3a.723.723,0,1,1,0,1.447H44.873ZM54.3,25.486a.723.723,0,1,1,0,1.447H50.144a.723.723,0,1,1,0-1.447Zm0,2.38a.723.723,0,1,1,0,1.447H50.144a.723.723,0,1,1,0-1.447Z" transform="translate(917.837 7154)" fill="#fff" fill-rule="evenodd"/>
  </g>
</svg>
