<svg xmlns="http://www.w3.org/2000/svg" width="69.323" height="69.323" viewBox="0 0 69.323 69.323">
  <g id="img26" transform="translate(-304.711 -7155.87)">
    <path id="Path_998832" data-name="Path 998832" d="M0,0H69.323V69.323H0Z" transform="translate(304.711 7155.87)" fill="#19538d"/>
    <g id="online_diagnosis" data-name="online diagnosis" transform="translate(316.008 7165.728)">
      <path id="Path_999513" data-name="Path 999513" d="M36.895,32.637V36.91H32.622V32.637ZM2,12.7V9.136A2.139,2.139,0,0,1,4.136,7H42.592a2.139,2.139,0,0,1,2.136,2.136V12.7ZM40.456,9.849a.712.712,0,1,0,.712-.712A.712.712,0,0,0,40.456,9.849Zm-35.607,0a.712.712,0,0,0,.712.712h8.546a.712.712,0,1,0,0-1.424H5.561A.712.712,0,0,0,4.849,9.849Zm39.88,4.273V40.471a2.139,2.139,0,0,1-2.136,2.136H4.136A2.139,2.139,0,0,1,2,40.471V14.121ZM19.091,20.531a.712.712,0,0,0,.712.712h5.7a.712.712,0,1,0,0-1.424H19.8A.712.712,0,0,0,19.091,20.531ZM8.409,24.8H9.834v1.424a.712.712,0,0,0,.712.712h2.849a.712.712,0,0,0,.712-.712V24.8h1.424a.712.712,0,0,0,.712-.712V21.243a.712.712,0,0,0-.712-.712H14.106V19.106a.712.712,0,0,0-.712-.712H10.546a.712.712,0,0,0-.712.712v1.424H8.409a.712.712,0,0,0-.712.712v2.849A.712.712,0,0,0,8.409,24.8Zm20.652,9.258a.712.712,0,0,0-.712-.712H25.5a.712.712,0,0,0-.637.394l0,.006-.835-2.088a.712.712,0,0,0-1.254-.13l-1.213,1.819H19.8a.712.712,0,0,0-.685.516L18.4,36.4,16.93,31.025a.712.712,0,0,0-1.257-.24L13.75,33.349H9.834a.712.712,0,0,0,0,1.424h4.273a.711.711,0,0,0,.57-.285l1.263-1.684,1.753,6.429a.713.713,0,0,0,.683.525h0a.712.712,0,0,0,.685-.516l1.277-4.469h1.6a.712.712,0,0,0,.593-.317l.673-1.01.921,2.3a.712.712,0,0,0,.632.447.729.729,0,0,0,.667-.393l.515-1.031h2.408A.712.712,0,0,0,29.061,34.061Zm9.258-1.424a1.426,1.426,0,0,0-1.424-1.424H32.622A1.426,1.426,0,0,0,31.2,32.637V36.91a1.426,1.426,0,0,0,1.424,1.424h4.273a1.426,1.426,0,0,0,1.424-1.424Zm0-7.121a.712.712,0,0,0-.712-.712H19.8a.712.712,0,1,0,0,1.424h17.8A.712.712,0,0,0,38.319,25.516Zm0-2.136a.712.712,0,0,0-.712-.712H19.8a.712.712,0,1,0,0,1.424h17.8A.712.712,0,0,0,38.319,23.379Zm-27.061.712v1.424h1.424V24.091a.712.712,0,0,1,.712-.712h1.424V21.955H13.394a.712.712,0,0,1-.712-.712V19.819H11.258v1.424a.712.712,0,0,1-.712.712H9.121v1.424h1.424A.712.712,0,0,1,11.258,24.091Z" fill="#fff"/>
    </g>
  </g>
</svg>
