<svg xmlns="http://www.w3.org/2000/svg" width="69.323" height="69.323" viewBox="0 0 69.323 69.323">
  <g id="img3" transform="translate(-303.711 -918)">
    <path id="Path_998831" data-name="Path 998831" d="M0,0H69.323V69.323H0Z" transform="translate(303.711 918)" fill="#19538d"/>
    <g id="Rare" transform="translate(316.711 932)">
      <path id="Path_999126" data-name="Path 999126" d="M33.455,2H10.545A9.557,9.557,0,0,0,1,11.545V30.636a9.557,9.557,0,0,0,9.545,9.545H33.455A9.557,9.557,0,0,0,43,30.636V11.545A9.557,9.557,0,0,0,33.455,2ZM10.545,5.818H33.455a5.734,5.734,0,0,1,5.727,5.727v1.909H4.818V11.545a5.734,5.734,0,0,1,5.727-5.727ZM33.455,36.364H10.545a5.734,5.734,0,0,1-5.727-5.727V17.273H39.182V30.636A5.734,5.734,0,0,1,33.455,36.364Z" transform="translate(0 0)" fill="#fff"/>
      <path id="Path_999127" data-name="Path 999127" d="M5.909,8.818H7.818A1.909,1.909,0,0,0,7.818,5H5.909a1.909,1.909,0,0,0,0,3.818Z" transform="translate(2.727 2.727)" fill="#fff"/>
      <path id="Path_999128" data-name="Path 999128" d="M9.909,8.818h1.909a1.909,1.909,0,1,0,0-3.818H9.909a1.909,1.909,0,0,0,0,3.818Z" transform="translate(6.364 2.727)" fill="#fff"/>
      <path id="Path_999129" data-name="Path 999129" d="M13.909,8.818h1.909a1.909,1.909,0,0,0,0-3.818H13.909a1.909,1.909,0,1,0,0,3.818Z" transform="translate(10 2.727)" fill="#fff"/>
      <path id="Path_999130" data-name="Path 999130" d="M12.077,12.559a1.908,1.908,0,0,0-2.7,0L5.559,16.378a1.908,1.908,0,0,0,0,2.7L9.378,22.9a1.909,1.909,0,1,0,2.7-2.7L9.609,17.727l2.468-2.468A1.908,1.908,0,0,0,12.077,12.559Z" transform="translate(3.636 9.091)" fill="#fff"/>
      <path id="Path_999131" data-name="Path 999131" d="M18.259,12.559a1.909,1.909,0,1,0-2.7,2.7l2.468,2.468L15.559,20.2a1.909,1.909,0,1,0,2.7,2.7l3.818-3.818a1.908,1.908,0,0,0,0-2.7Z" transform="translate(12.727 9.091)" fill="#fff"/>
      <path id="Path_999132" data-name="Path 999132" d="M16.332,11.1a1.909,1.909,0,0,0-2.415,1.207L10.1,23.76a1.909,1.909,0,0,0,3.622,1.208l3.818-11.455A1.909,1.909,0,0,0,16.332,11.1Z" transform="translate(8.182 8.181)" fill="#fff"/>
    </g>
  </g>
</svg>
