<svg xmlns="http://www.w3.org/2000/svg" width="69.323" height="69.323" viewBox="0 0 69.323 69.323">
  <g id="img4" transform="translate(-608.711 -917.593)">
    <g id="Group_1184287" data-name="Group 1184287">
      <rect id="Rectangle_456198" data-name="Rectangle 456198" width="69.323" height="69.323" transform="translate(608.711 917.593)" fill="#62249e"/>
      <g id="Rare" transform="translate(622.708 930.997)">
        <path id="Path_999136" data-name="Path 999136" d="M18,4a14,14,0,1,0,14,14A14,14,0,0,0,18,4Zm9.081,8.752H24.175A17.122,17.122,0,0,0,22.014,8.3a10.555,10.555,0,0,1,5.07,4.451ZM28.505,18a10.492,10.492,0,0,1-.158,1.75H24.906c.058-.579.1-1.161.1-1.75s-.04-1.172-.1-1.75h3.442A10.492,10.492,0,0,1,28.505,18ZM18,27.167a13.705,13.705,0,0,1-2.449-3.913h4.9A13.706,13.706,0,0,1,18,27.167Zm-3.382-7.414a13.005,13.005,0,0,1,0-3.5h6.765a13.005,13.005,0,0,1,0,3.5ZM7.5,18a10.491,10.491,0,0,1,.158-1.75H11.1c-.058.579-.1,1.161-.1,1.75s.04,1.172.1,1.75H7.658A10.491,10.491,0,0,1,7.5,18ZM18,8.839a13.7,13.7,0,0,1,2.449,3.913h-4.9A13.7,13.7,0,0,1,18,8.839ZM13.992,8.3a17.122,17.122,0,0,0-2.16,4.451H8.922A10.555,10.555,0,0,1,13.992,8.3ZM8.922,23.254h2.909a17.122,17.122,0,0,0,2.16,4.451A10.555,10.555,0,0,1,8.922,23.254Zm13.093,4.451a17.122,17.122,0,0,0,2.16-4.451h2.909a10.555,10.555,0,0,1-5.07,4.451Z" transform="translate(3 3)" fill="#fff"/>
        <path id="Path_999137" data-name="Path 999137" d="M40.257,32.87V9.135A5.231,5.231,0,1,0,32.87,1.748H9.135A5.231,5.231,0,1,0,1.748,9.135V32.87a5.231,5.231,0,1,0,7.387,7.387H32.87a5.231,5.231,0,1,0,7.387-7.387ZM36.756,3.5a1.75,1.75,0,1,1-1.75,1.75,1.75,1.75,0,0,1,1.75-1.75ZM5.249,3.5A1.75,1.75,0,1,1,3.5,5.249,1.75,1.75,0,0,1,5.249,3.5Zm0,35.008A1.75,1.75,0,1,1,7,36.756a1.75,1.75,0,0,1-1.75,1.75Zm5.251-1.75A5.257,5.257,0,0,0,5.249,31.5v-21A5.257,5.257,0,0,0,10.5,5.249h21A5.257,5.257,0,0,0,36.756,10.5v21A5.257,5.257,0,0,0,31.5,36.756Zm26.256,1.75a1.75,1.75,0,1,1,1.75-1.75A1.75,1.75,0,0,1,36.756,38.506Z" transform="translate(0 0)" fill="#fff"/>
      </g>
    </g>
  </g>
</svg>
