<svg xmlns="http://www.w3.org/2000/svg" width="69.323" height="69.323" viewBox="0 0 69.323 69.323">
  <g id="img5" transform="translate(-914.711 -918)">
    <rect id="Rectangle_456199" data-name="Rectangle 456199" width="69.323" height="69.323" transform="translate(914.711 918)" fill="#19538d"/>
    <g id="Rare" transform="translate(927.162 929.996)">
      <path id="Path_999133" data-name="Path 999133" d="M40.633,23.1a3.969,3.969,0,0,1,1.438-3.049,4.039,4.039,0,0,0,1.242-4.481,21.2,21.2,0,0,0-3.862-6.689,4.039,4.039,0,0,0-4.5-1.162,3.95,3.95,0,0,1-5.28-3.054,4.1,4.1,0,0,0-3.315-3.332,21.924,21.924,0,0,0-7.609.012,4.048,4.048,0,0,0-3.315,3.324,3.951,3.951,0,0,1-5.28,3.051A4.085,4.085,0,0,0,5.609,8.924,22,22,0,0,0,1.8,15.508a4.086,4.086,0,0,0,1.226,4.537,3.954,3.954,0,0,1,0,6.1,4.039,4.039,0,0,0-1.242,4.481,21.2,21.2,0,0,0,3.862,6.689,4.041,4.041,0,0,0,4.5,1.162,3.95,3.95,0,0,1,5.28,3.054,4.046,4.046,0,0,0,3.315,3.332,21.993,21.993,0,0,0,7.609-.012,4.048,4.048,0,0,0,3.314-3.324,3.951,3.951,0,0,1,5.28-3.051,4.029,4.029,0,0,0,4.537-1.207A21.909,21.909,0,0,0,43.3,30.688,4.087,4.087,0,0,0,42.07,26.15,3.973,3.973,0,0,1,40.633,23.1ZM36.332,34.7a7.987,7.987,0,0,0-6.75.573A8.192,8.192,0,0,0,25.659,40.9a16.844,16.844,0,0,1-6.269-.051,7.96,7.96,0,0,0-7.851-6.631,8.366,8.366,0,0,0-2.83.5A17.637,17.637,0,0,1,6.888,32.14a13.916,13.916,0,0,1-1.281-2.91A7.977,7.977,0,0,0,8.484,23.1,8.16,8.16,0,0,0,5.57,16.891a16.966,16.966,0,0,1,3.2-5.4,8,8,0,0,0,6.75-.573A8.192,8.192,0,0,0,19.439,5.3a16.889,16.889,0,0,1,6.269.047,7.972,7.972,0,0,0,3.874,5.571,8.073,8.073,0,0,0,6.807.563,17.625,17.625,0,0,1,1.821,2.575,13.917,13.917,0,0,1,1.281,2.91,7.974,7.974,0,0,0,.008,12.27l.03.069A16.944,16.944,0,0,1,36.332,34.7Z" transform="translate(0 0)" fill="#fff"/>
      <path id="Path_999134" data-name="Path 999134" d="M24.594,9.344a2.027,2.027,0,0,0-1.844.544L19.334,13.3a2.009,2.009,0,1,0,2.841,2.841l.542-.54a8.049,8.049,0,0,1-7.991,7.157,7.62,7.62,0,0,1-2.706-.473,2.01,2.01,0,1,0-1.421,3.76,11.618,11.618,0,0,0,4.127.732A12.069,12.069,0,0,0,26.782,14.725,11.618,11.618,0,0,0,26.05,10.6a2.008,2.008,0,0,0-1.456-1.254Z" transform="translate(7.823 8.374)" fill="#fff"/>
      <path id="Path_999135" data-name="Path 999135" d="M13.449,16.635a2.008,2.008,0,0,0-2.841,0l-.543.54a8.049,8.049,0,0,1,7.991-7.156,7.62,7.62,0,0,1,2.706.473,2.01,2.01,0,0,0,1.421-3.76A11.618,11.618,0,0,0,18.056,6,12.069,12.069,0,0,0,6,18.056a11.618,11.618,0,0,0,.732,4.127,2.008,2.008,0,0,0,1.456,1.254,2.067,2.067,0,0,0,.424.045,2.008,2.008,0,0,0,1.421-.589l3.416-3.416A2.008,2.008,0,0,0,13.449,16.635Z" transform="translate(4.493 5.042)" fill="#fff"/>
    </g>
  </g>
</svg>
