<svg xmlns="http://www.w3.org/2000/svg" xmlns:xlink="http://www.w3.org/1999/xlink" width="96" height="96" viewBox="0 0 96 96">
  <defs>
    <clipPath id="clip-path">
      <rect id="Rectángulo_455533" data-name="Rectángulo 455533" width="95.999" height="92.163" fill="#19538d"/>
    </clipPath>
  </defs>
  <g id="Grupo_1179840" data-name="Grupo 1179840" transform="translate(-383.746 -8399)">
    <circle id="Elipse_13674" data-name="Elipse 13674" cx="41.5" cy="41.5" r="41.5" transform="translate(389.746 8406)" fill="#19538d"/>
    <g id="Grupo_1179062" data-name="Grupo 1179062" transform="translate(383.745 8399)">
      <rect id="Rectángulo_455531" data-name="Rectángulo 455531" width="96" height="96" transform="translate(0 0)" fill="none"/>
      <g id="Grupo_1179061" data-name="Grupo 1179061" transform="translate(0 2.203)">
        <path id="Trazado_998445" data-name="Trazado 998445" d="M114.467,95.838H96.727l2.4-4.484h17.739Z" transform="translate(-23.693 -22.7)" fill="#19538d"/>
        <path id="Trazado_998446" data-name="Trazado 998446" d="M1.458,86.893,0,89.861H19.558l1.458-2.968Z" transform="translate(0 -21.618)" fill="#19538d"/>
        <path id="Trazado_998447" data-name="Trazado 998447" d="M117.539,31.293H98.809l1.469-3.326h18.73Z" transform="translate(-24.246 -6.956)" fill="#19538d"/>
        <path id="Trazado_998448" data-name="Trazado 998448" d="M28.088,11.547H3.483L4.952,8.221H29.557Z" transform="translate(-0.925 -2.184)" fill="#19538d"/>
        <g id="Grupo_1179060" data-name="Grupo 1179060" transform="translate(0)">
          <g id="Grupo_1179059" data-name="Grupo 1179059" clip-path="url(#clip-path)">
            <path id="Trazado_998449" data-name="Trazado 998449" d="M48.653,99.141a40.772,40.772,0,0,1-39.711-49.9H3.518A46.036,46.036,0,0,0,84.512,87.248h-7.1A40.6,40.6,0,0,1,48.653,99.141" transform="translate(-0.653 -12.277)" fill="#19538d"/>
            <path id="Trazado_998450" data-name="Trazado 998450" d="M110.835,87.933h6.025c.484-.964.923-1.952,1.34-2.953h-5.792c-.487,1.007-1.008,1.994-1.573,2.953" transform="translate(-27.709 -21.189)" fill="#19538d"/>
            <path id="Trazado_998451" data-name="Trazado 998451" d="M95.384,46.081a46.043,46.043,0,0,0-90.011-13.7h5.589A40.752,40.752,0,1,1,87.147,61.291h5.644a45.915,45.915,0,0,0,2.592-15.209" transform="translate(-1.343)" fill="#19538d"/>
            <path id="Trazado_998452" data-name="Trazado 998452" d="M108.562,81.649v2.5h3.277q.594-1.228,1.106-2.5Z" transform="translate(-27.141 -20.358)" fill="#19538d"/>
            <path id="Trazado_998453" data-name="Trazado 998453" d="M126.164,81.649h-4.551q-.444,1.268-.958,2.5h5.509Z" transform="translate(-30.164 -20.358)" fill="#19538d"/>
          </g>
        </g>
        <path id="Trazado_998444" data-name="Trazado 998444" d="M2.2,37.025,0,41.509H13.317l2.2-4.484Z" transform="translate(0 -9.2)" fill="#19538d"/>
      </g>
    </g>
    <g id="folder_setting" transform="translate(401.887 8418.39)">
      <g id="Grupo_1181608" data-name="Grupo 1181608" transform="translate(3.668 0.999)">
        <path id="Trazado_1000227" data-name="Trazado 1000227" d="M53.254,41.883h-.34a10.6,10.6,0,0,0-.6-1.435l.243-.244a1.794,1.794,0,0,0,0-2.534l-.975-.975V26.427A2.283,2.283,0,0,0,49.3,24.149H47.566l1.363-15.2a1.758,1.758,0,0,0-.473-1.543L45.2,4.031a1.306,1.306,0,0,0-1.017-.468l-1.27-.114h0L15.747,1.011a2.554,2.554,0,0,0-2.772,2.314l-1.82,20.263H5.8a2.165,2.165,0,0,0-1.547.6,1.93,1.93,0,0,0-.561,1.4L3.668,49.158c0,1.786.87,3.9,4.894,4.027a.9.9,0,0,0,.329.066H34.018L35.5,54.733a1.839,1.839,0,0,0,2.533,0l.242-.243a10.5,10.5,0,0,0,1.434.6v.344A1.8,1.8,0,0,0,41.5,57.22h2.96a1.794,1.794,0,0,0,1.792-1.791v-.344a10.372,10.372,0,0,0,1.434-.594l.245.245a1.8,1.8,0,0,0,2.533,0l2.094-2.093a1.793,1.793,0,0,0,0-2.532l-.245-.246a10.6,10.6,0,0,0,.6-1.435h.34a1.8,1.8,0,0,0,1.795-1.791v-2.96a1.8,1.8,0,0,0-1.795-1.792ZM49.773,26.427v8.727a1.8,1.8,0,0,0-1.842.422l-.241.242a10.383,10.383,0,0,0-1.434-.594v-.343a1.794,1.794,0,0,0-1.792-1.792H41.5a1.8,1.8,0,0,0-1.795,1.792v.343a10.489,10.489,0,0,0-1.434.6l-.242-.243a1.8,1.8,0,0,0-2.533,0L33.406,37.67a1.793,1.793,0,0,0,0,2.533l.242.243a10.507,10.507,0,0,0-.595,1.436H32.71a1.794,1.794,0,0,0-1.791,1.791v2.96a1.794,1.794,0,0,0,1.791,1.791h.343a10.442,10.442,0,0,0,.6,1.436l-.243.244a1.781,1.781,0,0,0-.517,1.332H9.8V32.5a.123.123,0,0,1,.121-.121h19.71a.908.908,0,0,0,.791-.462l2.836-5.049.166-.308c.108-.206.29-.551.414-.6H49.3a.473.473,0,0,1,.468.465ZM47.134,8.652c0,.042-.008.087-.012.138v.015l-3.754-.339.283-3.129.315.028ZM14.781,3.486a.734.734,0,0,1,.263-.5.722.722,0,0,1,.538-.169l26.26,2.357-.294,3.254a1.694,1.694,0,0,0,1.535,1.833l3.875.351L45.745,24.149H33.837a2.307,2.307,0,0,0-2.019,1.567L29.1,30.568H12.349Zm-9.3,45.672L5.5,25.587a.2.2,0,0,1,.027-.116A.55.55,0,0,1,5.8,25.4h5.188l-.464,5.167H9.919A1.937,1.937,0,0,0,7.984,32.5V51.334c-2.494-.257-2.5-1.528-2.5-2.176Zm46.754-2.546a.906.906,0,0,0-.878.681,8.756,8.756,0,0,1-.94,2.267.906.906,0,0,0,.138,1.1l.724.7L49.214,53.45l-.722-.723a.908.908,0,0,0-1.106-.138,8.6,8.6,0,0,1-2.264.939.908.908,0,0,0-.681.878l.022,1-2.941.022V54.407a.906.906,0,0,0-.68-.878,8.711,8.711,0,0,1-2.266-.94.907.907,0,0,0-1.1.139l-.691.723-1.7-1.676a.885.885,0,0,0-.125-.123l-.269-.265.723-.726a.906.906,0,0,0,.136-1.1,8.607,8.607,0,0,1-.938-2.264.908.908,0,0,0-.878-.681l-1,.022L32.71,43.7h1.022a.907.907,0,0,0,.878-.681,8.684,8.684,0,0,1,.939-2.268.907.907,0,0,0-.139-1.1l-.723-.692,2.063-2.094.723.723a.908.908,0,0,0,1.1.139,8.711,8.711,0,0,1,2.266-.94.906.906,0,0,0,.68-.878l-.019-1,2.938-.021V35.9a.908.908,0,0,0,.681.878,8.6,8.6,0,0,1,2.264.939.909.909,0,0,0,1.106-.138l.693-.723.83.818c.019.021.039.04.06.059l1.2,1.186-.722.725a.907.907,0,0,0-.139,1.1,8.774,8.774,0,0,1,.94,2.267.907.907,0,0,0,.878.681l1-.022.019,2.938H52.236Z" transform="translate(-3.668 -0.999)" fill="#fff"/>
        <path id="Trazado_1000228" data-name="Trazado 1000228" d="M46.42,43.194a5.894,5.894,0,1,0,5.894,5.894A5.9,5.9,0,0,0,46.42,43.194Zm0,9.975a4.08,4.08,0,1,1,4.08-4.08A4.085,4.085,0,0,1,46.42,53.169Z" transform="translate(-7.104 -4.933)" fill="#fff"/>
        <path id="Trazado_1000229" data-name="Trazado 1000229" d="M21.668,14.6,41.1,16.348c.027,0,.055,0,.082,0a.907.907,0,0,0,.08-1.81L21.83,12.8a.907.907,0,1,0-.162,1.806Z" transform="translate(-5.269 -2.099)" fill="#fff"/>
        <path id="Trazado_1000230" data-name="Trazado 1000230" d="M21.156,20.294l19.436,1.744c.027,0,.055,0,.082,0a.907.907,0,0,0,.08-1.81L21.318,18.488a.907.907,0,0,0-.162,1.806Z" transform="translate(-5.222 -2.629)" fill="#fff"/>
      </g>
    </g>
  </g>
</svg>
