<svg xmlns="http://www.w3.org/2000/svg" xmlns:xlink="http://www.w3.org/1999/xlink" width="96" height="96" viewBox="0 0 96 96">
  <defs>
    <clipPath id="clip-path">
      <rect id="Rectángulo_455533" data-name="Rectángulo 455533" width="95.999" height="92.163" fill="#19538d"/>
    </clipPath>
  </defs>
  <g id="Grupo_1179841" data-name="Grupo 1179841" transform="translate(-383.746 -8399)">
    <circle id="Elipse_13674" data-name="Elipse 13674" cx="41.5" cy="41.5" r="41.5" transform="translate(389.746 8406)" fill="#19538d"/>
    <g id="Grupo_1179062" data-name="Grupo 1179062" transform="translate(383.745 8399)">
      <rect id="Rectángulo_455531" data-name="Rectángulo 455531" width="96" height="96" transform="translate(0 0)" fill="none"/>
      <g id="Grupo_1179061" data-name="Grupo 1179061" transform="translate(0 2.203)">
        <path id="Trazado_998445" data-name="Trazado 998445" d="M114.467,95.838H96.727l2.4-4.484h17.739Z" transform="translate(-23.693 -22.7)" fill="#19538d"/>
        <path id="Trazado_998446" data-name="Trazado 998446" d="M1.458,86.893,0,89.861H19.558l1.458-2.968Z" transform="translate(0 -21.618)" fill="#19538d"/>
        <path id="Trazado_998447" data-name="Trazado 998447" d="M117.539,31.293H98.809l1.469-3.326h18.73Z" transform="translate(-24.246 -6.956)" fill="#19538d"/>
        <path id="Trazado_998448" data-name="Trazado 998448" d="M28.088,11.547H3.483L4.952,8.221H29.557Z" transform="translate(-0.925 -2.184)" fill="#19538d"/>
        <g id="Grupo_1179060" data-name="Grupo 1179060" transform="translate(0)">
          <g id="Grupo_1179059" data-name="Grupo 1179059" clip-path="url(#clip-path)">
            <path id="Trazado_998449" data-name="Trazado 998449" d="M48.653,99.141a40.772,40.772,0,0,1-39.711-49.9H3.518A46.036,46.036,0,0,0,84.512,87.248h-7.1A40.6,40.6,0,0,1,48.653,99.141" transform="translate(-0.653 -12.277)" fill="#19538d"/>
            <path id="Trazado_998450" data-name="Trazado 998450" d="M110.835,87.933h6.025c.484-.964.923-1.952,1.34-2.953h-5.792c-.487,1.007-1.008,1.994-1.573,2.953" transform="translate(-27.709 -21.189)" fill="#19538d"/>
            <path id="Trazado_998451" data-name="Trazado 998451" d="M95.384,46.081a46.043,46.043,0,0,0-90.011-13.7h5.589A40.752,40.752,0,1,1,87.147,61.291h5.644a45.915,45.915,0,0,0,2.592-15.209" transform="translate(-1.343)" fill="#19538d"/>
            <path id="Trazado_998452" data-name="Trazado 998452" d="M108.562,81.649v2.5h3.277q.594-1.228,1.106-2.5Z" transform="translate(-27.141 -20.358)" fill="#19538d"/>
            <path id="Trazado_998453" data-name="Trazado 998453" d="M126.164,81.649h-4.551q-.444,1.268-.958,2.5h5.509Z" transform="translate(-30.164 -20.358)" fill="#19538d"/>
          </g>
        </g>
        <path id="Trazado_998444" data-name="Trazado 998444" d="M2.2,37.025,0,41.509H13.317l2.2-4.484Z" transform="translate(0 -9.2)" fill="#19538d"/>
      </g>
    </g>
    <g id="_07-Solution" data-name="07-Solution" transform="translate(406.135 8421.582)">
      <path id="Trazado_1000231" data-name="Trazado 1000231" d="M35.908,23.821a.794.794,0,0,1-.57-.238l-3.32-3.425a3.155,3.155,0,0,1-2.3.941,3.1,3.1,0,0,1-2.273-1.082,3.348,3.348,0,0,1,.134-4.429l-3.352-3.455a.794.794,0,0,1,0-1.105l10-10.307a2.382,2.382,0,0,1,3.364,0l10,10.3a.794.794,0,0,1,0,1.105L43.7,16.135a.795.795,0,0,1-1.141-.006l-.556-.58a1.508,1.508,0,0,0-1.134-.464,1.531,1.531,0,0,0-1.119.534,1.14,1.14,0,0,0-.2.309L38.1,15.293a2.705,2.705,0,0,1,.471-.73,3.108,3.108,0,0,1,4.563-.118l2.779-2.866L36.449,1.831a.757.757,0,0,0-1.08,0L25.9,11.579l3.353,3.456a.794.794,0,0,1,0,1.111l-.46.468a1.782,1.782,0,0,0-.152,2.357,1.526,1.526,0,0,0,1.119.54A1.5,1.5,0,0,0,30.9,19.04l.556-.573a.8.8,0,0,1,1.138,0l3.318,3.42,2.17-2.232,1.138,1.107L36.477,23.58a.794.794,0,0,1-.569.241Z" transform="translate(-4.742)" fill="#fff"/>
      <path id="Trazado_1000232" data-name="Trazado 1000232" d="M9.732,42.64c-.057,0-.115,0-.172,0a3.239,3.239,0,0,1-3-3.171H1.794A.794.794,0,0,1,1,38.671V24.382A2.382,2.382,0,0,1,3.382,22H17.671a.794.794,0,0,1,.794.794v5.557a.794.794,0,0,1-.794.794h-.794a1.588,1.588,0,0,0-1.588,1.674,1.682,1.682,0,0,0,1.723,1.5h.659a.794.794,0,0,1,.794.794v5.557a.794.794,0,0,1-.794.794H12.908a3.191,3.191,0,0,1-.99,2.3A3.144,3.144,0,0,1,9.732,42.64ZM2.588,37.877H7.351a.794.794,0,0,1,.794.794v.659a1.682,1.682,0,0,0,1.5,1.723,1.588,1.588,0,0,0,1.674-1.588v-.794a.794.794,0,0,1,.794-.794h4.763V33.908a3.239,3.239,0,0,1-3.171-3,3.148,3.148,0,0,1,.868-2.357,3.191,3.191,0,0,1,2.3-.99V23.588H3.382a.794.794,0,0,0-.794.794Z" transform="translate(0 -4.53)" fill="#fff"/>
      <path id="Trazado_1000233" data-name="Trazado 1000233" d="M17.671,59.465H3.382A2.382,2.382,0,0,1,1,57.083V42.794A.794.794,0,0,1,1.794,42H7.351a.794.794,0,0,1,.794.794v.794a1.588,1.588,0,0,0,1.674,1.588,1.682,1.682,0,0,0,1.5-1.723v-.659A.794.794,0,0,1,12.114,42h5.557a.794.794,0,0,1,.794.794v4.763a3.191,3.191,0,0,1,2.3.99,3.148,3.148,0,0,1,.867,2.355,3.239,3.239,0,0,1-3.169,3.006v4.763A.794.794,0,0,1,17.671,59.465ZM2.588,43.588v13.5a.794.794,0,0,0,.794.794h13.5V53.114a.794.794,0,0,1,.794-.794h.659a1.682,1.682,0,0,0,1.723-1.5,1.588,1.588,0,0,0-1.588-1.674h-.794a.794.794,0,0,1-.794-.794V43.588H12.908a3.239,3.239,0,0,1-3,3.171,3.146,3.146,0,0,1-2.357-.868,3.191,3.191,0,0,1-.99-2.3Z" transform="translate(0 -8.653)" fill="#fff"/>
      <path id="Trazado_1000234" data-name="Trazado 1000234" d="M36.083,58.641H21.794A.794.794,0,0,1,21,57.847V52.29a.794.794,0,0,1,.794-.794h.794a1.588,1.588,0,0,0,1.588-1.674,1.682,1.682,0,0,0-1.723-1.5h-.659A.794.794,0,0,1,21,47.527V41.97a.794.794,0,0,1,.794-.794h4.763a3.191,3.191,0,0,1,.99-2.3,3.145,3.145,0,0,1,2.355-.867,3.239,3.239,0,0,1,3.006,3.169h4.763a.794.794,0,0,1,.794.794V56.259A2.382,2.382,0,0,1,36.083,58.641Zm-13.5-1.588h13.5a.794.794,0,0,0,.794-.794v-13.5H32.114a.794.794,0,0,1-.794-.794v-.659a1.682,1.682,0,0,0-1.5-1.723,1.588,1.588,0,0,0-1.674,1.588v.794a.794.794,0,0,1-.794.794H22.588v3.969a3.239,3.239,0,0,1,3.171,3,3.148,3.148,0,0,1-.868,2.357,3.191,3.191,0,0,1-2.3.99Z" transform="translate(-4.123 -7.829)" fill="#fff"/>
      <path id="Trazado_1000235" data-name="Trazado 1000235" d="M48.32,34.671c-5.478,0-7.05-6.351-7.141-9.988l-2.947-2.947a.794.794,0,0,1,0-1.123l2.382-2.382a.794.794,0,0,1,1.123,0l7.145,7.145L47.759,26.5l-6.583-6.583-1.259,1.259,2.614,2.614a.794.794,0,0,1,.233.561c0,.087.079,8.732,5.557,8.732Z" transform="translate(-7.627 -3.706)" fill="#fff"/>
      <path id="Trazado_1000236" data-name="Trazado 1000236" d="M58.026,34.806H56.438V31.63L57.992,14.5l-5.863-5.13-5.557-.693.2-1.573,5.8.722a.794.794,0,0,1,.425.191l6.351,5.557a.794.794,0,0,1,.271.667L58.026,31.7Z" transform="translate(-9.394 -1.459)" fill="#fff"/>
      <path id="Trazado_1000237" data-name="Trazado 1000237" d="M47,37h1.588v3.969H47Z" transform="translate(-9.483 -7.622)" fill="#fff"/>
      <path id="Trazado_1000238" data-name="Trazado 1000238" d="M58.5,47.351h-12.7A.794.794,0,0,1,45,46.557V41.794A.794.794,0,0,1,45.794,41H58.5a.794.794,0,0,1,.794.794v4.763A.794.794,0,0,1,58.5,47.351ZM46.588,45.763H57.7V42.588H46.588Z" transform="translate(-9.07 -8.447)" fill="#fff"/>
      <path id="Trazado_1000239" data-name="Trazado 1000239" d="M46,48h1.588V59.908H46Z" transform="translate(-9.276 -9.89)" fill="#fff"/>
      <path id="Trazado_1000240" data-name="Trazado 1000240" d="M60,48h1.588V59.908H60Z" transform="translate(-12.162 -9.89)" fill="#fff"/>
      <path id="Trazado_1000241" data-name="Trazado 1000241" d="M47,19h1.588v4.763H47Z" transform="translate(-9.483 -3.912)" fill="#fff"/>
      <path id="Trazado_1000242" data-name="Trazado 1000242" d="M12,11h6.351v1.588H12Z" transform="translate(-2.268 -2.263)" fill="#fff"/>
      <path id="Trazado_1000243" data-name="Trazado 1000243" d="M0,0H5.613V1.588H0Z" transform="translate(11.55 15.321) rotate(-45)" fill="#fff"/>
      <path id="Trazado_1000244" data-name="Trazado 1000244" d="M0,0H1.588V5.613H0Z" transform="translate(11.55 3.742) rotate(-45)" fill="#fff"/>
      <path id="Trazado_1000245" data-name="Trazado 1000245" d="M5,58H6.588v1.588H5Z" transform="translate(-0.825 -11.951)" fill="#fff"/>
      <path id="Trazado_1000246" data-name="Trazado 1000246" d="M9,58h7.939v1.588H9Z" transform="translate(-1.649 -11.951)" fill="#fff"/>
    </g>
  </g>
</svg>
