<svg xmlns="http://www.w3.org/2000/svg" xmlns:xlink="http://www.w3.org/1999/xlink" width="96" height="96" viewBox="0 0 96 96">
  <defs>
    <clipPath id="clip-path">
      <rect id="Rectángulo_455533" data-name="Rectángulo 455533" width="95.999" height="92.163" fill="#19538d"/>
    </clipPath>
  </defs>
  <g id="Grupo_1179073" data-name="Grupo 1179073" transform="translate(-383.745 -8399)">
    <circle id="Elipse_13674" data-name="Elipse 13674" cx="41.5" cy="41.5" r="41.5" transform="translate(389.746 8406)" fill="#19538d"/>
    <g id="Grupo_1179062" data-name="Grupo 1179062" transform="translate(383.745 8399)">
      <rect id="Rectángulo_455531" data-name="Rectángulo 455531" width="96" height="96" transform="translate(0 0)" fill="none"/>
      <g id="Grupo_1179061" data-name="Grupo 1179061" transform="translate(0 2.203)">
        <path id="Trazado_998445" data-name="Trazado 998445" d="M114.467,95.838H96.727l2.4-4.484h17.739Z" transform="translate(-23.693 -22.7)" fill="#19538d"/>
        <path id="Trazado_998446" data-name="Trazado 998446" d="M1.458,86.893,0,89.861H19.558l1.458-2.968Z" transform="translate(0 -21.618)" fill="#19538d"/>
        <path id="Trazado_998447" data-name="Trazado 998447" d="M117.539,31.293H98.809l1.469-3.326h18.73Z" transform="translate(-24.246 -6.956)" fill="#19538d"/>
        <path id="Trazado_998448" data-name="Trazado 998448" d="M28.088,11.547H3.483L4.952,8.221H29.557Z" transform="translate(-0.925 -2.184)" fill="#19538d"/>
        <g id="Grupo_1179060" data-name="Grupo 1179060" transform="translate(0)">
          <g id="Grupo_1179059" data-name="Grupo 1179059" clip-path="url(#clip-path)">
            <path id="Trazado_998449" data-name="Trazado 998449" d="M48.653,99.141a40.772,40.772,0,0,1-39.711-49.9H3.518A46.036,46.036,0,0,0,84.512,87.248h-7.1A40.6,40.6,0,0,1,48.653,99.141" transform="translate(-0.653 -12.277)" fill="#19538d"/>
            <path id="Trazado_998450" data-name="Trazado 998450" d="M110.835,87.933h6.025c.484-.964.923-1.952,1.34-2.953h-5.792c-.487,1.007-1.008,1.994-1.573,2.953" transform="translate(-27.709 -21.189)" fill="#19538d"/>
            <path id="Trazado_998451" data-name="Trazado 998451" d="M95.384,46.081a46.043,46.043,0,0,0-90.011-13.7h5.589A40.752,40.752,0,1,1,87.147,61.291h5.644a45.915,45.915,0,0,0,2.592-15.209" transform="translate(-1.343)" fill="#19538d"/>
            <path id="Trazado_998452" data-name="Trazado 998452" d="M108.562,81.649v2.5h3.277q.594-1.228,1.106-2.5Z" transform="translate(-27.141 -20.358)" fill="#19538d"/>
            <path id="Trazado_998453" data-name="Trazado 998453" d="M126.164,81.649h-4.551q-.444,1.268-.958,2.5h5.509Z" transform="translate(-30.164 -20.358)" fill="#19538d"/>
          </g>
        </g>
        <path id="Trazado_998444" data-name="Trazado 998444" d="M2.2,37.025,0,41.509H13.317l2.2-4.484Z" transform="translate(0 -9.2)" fill="#19538d"/>
      </g>
    </g>
    <g id="Grupo_1181607" data-name="Grupo 1181607" transform="translate(410.611 8426.728)">
      <g id="Grupo_1181603" data-name="Grupo 1181603" transform="translate(21.949 21.949)">
        <path id="Trazado_1000221" data-name="Trazado 1000221" d="M47.272,51.322H39.05A4.05,4.05,0,0,1,35,47.272V36.209A1.213,1.213,0,0,1,36.209,35H47.272a4.05,4.05,0,0,1,4.05,4.05v8.221a4.05,4.05,0,0,1-4.05,4.05Zm-9.854-13.9v9.854A1.625,1.625,0,0,0,39.05,48.9h8.221A1.625,1.625,0,0,0,48.9,47.272V39.05a1.625,1.625,0,0,0-1.632-1.632Z" transform="translate(-35 -35)" fill="#fff"/>
      </g>
      <g id="Grupo_1181604" data-name="Grupo 1181604" transform="translate(2 21.949)">
        <path id="Trazado_1000222" data-name="Trazado 1000222" d="M14.272,51.322H6.05A4.05,4.05,0,0,1,2,47.272V39.05A4.05,4.05,0,0,1,6.05,35H17.113a1.213,1.213,0,0,1,1.209,1.209V47.272A4.05,4.05,0,0,1,14.272,51.322ZM6.05,37.418A1.625,1.625,0,0,0,4.418,39.05v8.221A1.625,1.625,0,0,0,6.05,48.9h8.221A1.625,1.625,0,0,0,15.9,47.272V37.418Z" transform="translate(-2 -35)" fill="#fff"/>
      </g>
      <g id="Grupo_1181605" data-name="Grupo 1181605" transform="translate(21.949 2)">
        <path id="Trazado_1000223" data-name="Trazado 1000223" d="M47.272,18.322H36.209A1.213,1.213,0,0,1,35,17.113V6.05A4.05,4.05,0,0,1,39.05,2h8.221a4.05,4.05,0,0,1,4.05,4.05v8.221A4.05,4.05,0,0,1,47.272,18.322ZM37.418,15.9h9.854A1.625,1.625,0,0,0,48.9,14.272V6.05a1.625,1.625,0,0,0-1.632-1.632H39.05A1.625,1.625,0,0,0,37.418,6.05Z" transform="translate(-35 -2)" fill="#fff"/>
      </g>
      <g id="Grupo_1181606" data-name="Grupo 1181606" transform="translate(2 2)">
        <path id="Trazado_1000224" data-name="Trazado 1000224" d="M17.113,18.322H6.05A4.05,4.05,0,0,1,2,14.272V6.05A4.05,4.05,0,0,1,6.05,2h8.221a4.05,4.05,0,0,1,4.05,4.05V17.113a1.213,1.213,0,0,1-1.209,1.209ZM6.05,4.418A1.625,1.625,0,0,0,4.418,6.05v8.221A1.625,1.625,0,0,0,6.05,15.9H15.9V6.05a1.625,1.625,0,0,0-1.632-1.632Z" transform="translate(-2 -2)" fill="#fff"/>
      </g>
    </g>
  </g>
</svg>
