<svg xmlns="http://www.w3.org/2000/svg" xmlns:xlink="http://www.w3.org/1999/xlink" width="96" height="96" viewBox="0 0 96 96">
  <defs>
    <clipPath id="clip-path">
      <rect id="Rectángulo_455533" data-name="Rectángulo 455533" width="95.999" height="92.163" fill="#19538d"/>
    </clipPath>
  </defs>
  <g id="Grupo_1179074" data-name="Grupo 1179074" transform="translate(-383.745 -8399)">
    <circle id="Elipse_13674" data-name="Elipse 13674" cx="41.5" cy="41.5" r="41.5" transform="translate(389.746 8406)" fill="#19538d"/>
    <g id="Grupo_1179062" data-name="Grupo 1179062" transform="translate(383.745 8399)">
      <rect id="Rectángulo_455531" data-name="Rectángulo 455531" width="96" height="96" transform="translate(0 0)" fill="none"/>
      <g id="Grupo_1179061" data-name="Grupo 1179061" transform="translate(0 2.203)">
        <path id="Trazado_998445" data-name="Trazado 998445" d="M114.467,95.838H96.727l2.4-4.484h17.739Z" transform="translate(-23.693 -22.7)" fill="#19538d"/>
        <path id="Trazado_998446" data-name="Trazado 998446" d="M1.458,86.893,0,89.861H19.558l1.458-2.968Z" transform="translate(0 -21.618)" fill="#19538d"/>
        <path id="Trazado_998447" data-name="Trazado 998447" d="M117.539,31.293H98.809l1.469-3.326h18.73Z" transform="translate(-24.246 -6.956)" fill="#19538d"/>
        <path id="Trazado_998448" data-name="Trazado 998448" d="M28.088,11.547H3.483L4.952,8.221H29.557Z" transform="translate(-0.925 -2.184)" fill="#19538d"/>
        <g id="Grupo_1179060" data-name="Grupo 1179060" transform="translate(0)">
          <g id="Grupo_1179059" data-name="Grupo 1179059" clip-path="url(#clip-path)">
            <path id="Trazado_998449" data-name="Trazado 998449" d="M48.653,99.141a40.772,40.772,0,0,1-39.711-49.9H3.518A46.036,46.036,0,0,0,84.512,87.248h-7.1A40.6,40.6,0,0,1,48.653,99.141" transform="translate(-0.653 -12.277)" fill="#19538d"/>
            <path id="Trazado_998450" data-name="Trazado 998450" d="M110.835,87.933h6.025c.484-.964.923-1.952,1.34-2.953h-5.792c-.487,1.007-1.008,1.994-1.573,2.953" transform="translate(-27.709 -21.189)" fill="#19538d"/>
            <path id="Trazado_998451" data-name="Trazado 998451" d="M95.384,46.081a46.043,46.043,0,0,0-90.011-13.7h5.589A40.752,40.752,0,1,1,87.147,61.291h5.644a45.915,45.915,0,0,0,2.592-15.209" transform="translate(-1.343)" fill="#19538d"/>
            <path id="Trazado_998452" data-name="Trazado 998452" d="M108.562,81.649v2.5h3.277q.594-1.228,1.106-2.5Z" transform="translate(-27.141 -20.358)" fill="#19538d"/>
            <path id="Trazado_998453" data-name="Trazado 998453" d="M126.164,81.649h-4.551q-.444,1.268-.958,2.5h5.509Z" transform="translate(-30.164 -20.358)" fill="#19538d"/>
          </g>
        </g>
        <path id="Trazado_998444" data-name="Trazado 998444" d="M2.2,37.025,0,41.509H13.317l2.2-4.484Z" transform="translate(0 -9.2)" fill="#19538d"/>
      </g>
    </g>
    <path id="Trazado_1000225" data-name="Trazado 1000225" d="M46.347,10.7a25.494,25.494,0,0,0-32.8-9.348A1.206,1.206,0,1,0,14.6,3.518a23.125,23.125,0,0,1,8.962-2.335V6.817a17.471,17.471,0,0,0-15.713,13,1.2,1.2,0,0,0,2.328.606,15.063,15.063,0,0,1,27.163-4.43l-4.247,2.328a10.033,10.033,0,0,0-3.145-2.882,1.2,1.2,0,1,0-1.226,2.072,7.832,7.832,0,1,1-11.706,7.969h4.612a3.354,3.354,0,1,0-.007-2.408h-4.6a7.839,7.839,0,0,1,6.057-6.459,1.207,1.207,0,1,0-.518-2.357,10.248,10.248,0,0,0-8.042,10.005v.022c0,.088,0,.183.007.27a10.243,10.243,0,0,0,8.619,9.816c.139.021.285.043.423.058v4.853c-.117-.007-.226-.022-.343-.029a15.045,15.045,0,0,1-12.851-10.5,1.2,1.2,0,0,0-2.3.722,17.5,17.5,0,0,0,4.474,7.305L8.909,41.058c-.24-.226-.482-.46-.715-.7A23.045,23.045,0,0,1,7.012,9.487,1.2,1.2,0,0,0,5.165,7.949a25.5,25.5,0,0,0,1.3,34.088q.843.865,1.751,1.642l.022.022a.437.437,0,0,0,.036.029,25.426,25.426,0,0,0,14.764,5.977c.577.037,1.146.059,1.715.059a25.465,25.465,0,0,0,15.741-5.444c.2-.161.408-.328.606-.5a1.126,1.126,0,0,0,.19-.131.937.937,0,0,0,.146-.154A25.517,25.517,0,0,0,46.347,10.7ZM24.753,47.364a23.041,23.041,0,0,1-14.012-4.751l3.642-4.284a17.5,17.5,0,0,0,8.6,3.32c.511.051,1.022.08,1.526.088a1.057,1.057,0,0,0,.262.029.966.966,0,0,0,.255-.029A17.431,17.431,0,0,0,35.13,38.329l3.649,4.277a23.108,23.108,0,0,1-14.026,4.758Zm15.858-6.328L36.962,36.76a17.4,17.4,0,0,0,3.073-4.035,1.2,1.2,0,0,0-2.1-1.168A15.038,15.038,0,0,1,25.971,39.27V34.417a10.236,10.236,0,0,0,8.276-13.99L38.5,18.093a15.031,15.031,0,0,1,1.321,6.152,1.2,1.2,0,1,0,2.408,0A17.434,17.434,0,0,0,40.107,15.9c-.007-.015-.015-.036-.022-.051a.251.251,0,0,0-.036-.058A17.446,17.446,0,0,0,26.993,6.9c-.336-.043-.679-.073-1.015-.1V1.161A23.111,23.111,0,0,1,40.611,41.037Zm0,0" transform="translate(406.494 8422.741)" fill="#fff"/>
  </g>
</svg>
