<svg xmlns="http://www.w3.org/2000/svg" xmlns:xlink="http://www.w3.org/1999/xlink" width="129" height="127" viewBox="0 0 129 127">
  <defs>
    <clipPath id="clip-path">
      <rect id="Rectángulo_454807" data-name="Rectángulo 454807" width="129" height="127" transform="translate(399.059 5904)" fill="#9ecfff"/>
    </clipPath>
  </defs>
  <g id="Grupo_1184265" data-name="Grupo 1184265" transform="translate(-399.059 -4700)">
    <g id="Grupo_1177492" data-name="Grupo 1177492" transform="translate(0 -1204)">
      <rect id="Rectángulo_454806" data-name="Rectángulo 454806" width="129" height="127" transform="translate(399.059 5904)" fill="#9ecfff"/>
      <path id="Rectángulo_454808" data-name="Rectángulo 454808" d="M0,0H79A12,12,0,0,1,91,12V91a0,0,0,0,1,0,0H12A12,12,0,0,1,0,79V0A0,0,0,0,1,0,0Z" transform="translate(418.059 5922)" fill="#fff"/>
      <g id="Grupo_1182386" data-name="Grupo 1182386" transform="translate(428.995 5923.181)">
        <g id="Grupo_1182385" data-name="Grupo 1182385" transform="translate(0 11.819)">
          <path id="Trazado_1000743" data-name="Trazado 1000743" d="M138.3,168.135a4.137,4.137,0,0,1,2.9,0v.582a3.192,3.192,0,0,0,3.191,3.185H146.4a3.192,3.192,0,0,0,3.191-3.185v-2.373a3.192,3.192,0,0,0-3.191-3.185h-2.012a3.193,3.193,0,0,0-3.175,2.868,6.048,6.048,0,0,0-2.933,0,3.193,3.193,0,0,0-3.175-2.868H133.1a3.192,3.192,0,0,0-3.191,3.185v2.373A3.192,3.192,0,0,0,133.1,171.9h2.012a3.191,3.191,0,0,0,3.191-3.185Zm4.927-1.791a1.164,1.164,0,0,1,1.165-1.159H146.4a1.164,1.164,0,0,1,1.165,1.159v2.373a1.164,1.164,0,0,1-1.165,1.16h-2.012a1.164,1.164,0,0,1-1.165-1.16Zm-6.953,2.373a1.164,1.164,0,0,1-1.165,1.16H133.1a1.164,1.164,0,0,1-1.165-1.16v-2.373a1.164,1.164,0,0,1,1.165-1.159h2.012a1.164,1.164,0,0,1,1.165,1.159Z" transform="translate(-112.366 -142.726)" fill="#19538d"/>
          <path id="Trazado_1000744" data-name="Trazado 1000744" d="M176.315,327.077a4.129,4.129,0,1,0,4.137,4.129A4.137,4.137,0,0,0,176.315,327.077Zm0,6.232a2.1,2.1,0,1,1,2.111-2.1A2.11,2.11,0,0,1,176.315,333.309Z" transform="translate(-148.932 -284.513)" fill="#19538d"/>
          <path id="Trazado_1000745" data-name="Trazado 1000745" d="M151.117,296.414l-.406-.234a8.251,8.251,0,0,0,0-2.345l.409-.235a1.678,1.678,0,0,0,.612-2.282l-1.395-2.4a1.674,1.674,0,0,0-2.28-.608l-.409.235a8.3,8.3,0,0,0-2.039-1.175V286.9a1.674,1.674,0,0,0-1.673-1.671h-2.78a1.674,1.674,0,0,0-1.673,1.671v.467a8.334,8.334,0,0,0-2.038,1.175l-.407-.235a1.674,1.674,0,0,0-2.284.608l-1.389,2.4a1.671,1.671,0,0,0,.61,2.285l.406.234a8.252,8.252,0,0,0,0,2.345l-.409.235a1.671,1.671,0,0,0-.609,2.281l1.389,2.4a1.673,1.673,0,0,0,2.283.616l.411-.236a8.377,8.377,0,0,0,2.037,1.175v.467a1.674,1.674,0,0,0,1.673,1.671h2.78a1.674,1.674,0,0,0,1.673-1.671v-.467a8.333,8.333,0,0,0,2.038-1.175l.408.234a1.672,1.672,0,0,0,2.284-.612l1.389-2.4a1.671,1.671,0,0,0-.61-2.285Zm-2.52-2.859a6.207,6.207,0,0,1,0,2.906,1.013,1.013,0,0,0,.479,1.116l.72.414-1.036,1.79-.725-.417a1.013,1.013,0,0,0-1.2.142,6.273,6.273,0,0,1-2.525,1.455,1.013,1.013,0,0,0-.727.972v.832h-2.075v-.832a1.013,1.013,0,0,0-.727-.972,6.311,6.311,0,0,1-2.527-1.457,1.013,1.013,0,0,0-1.2-.14l-.725.417-1.036-1.79.72-.414a1.013,1.013,0,0,0,.479-1.116,6.208,6.208,0,0,1,0-2.906,1.013,1.013,0,0,0-.479-1.116l-.72-.414,1.034-1.787.727.418a1.013,1.013,0,0,0,1.2-.142,6.27,6.27,0,0,1,2.525-1.455,1.013,1.013,0,0,0,.727-.972v-.832h2.075v.832a1.013,1.013,0,0,0,.727.972,6.234,6.234,0,0,1,2.523,1.454,1.013,1.013,0,0,0,1.2.144l.727-.418,1.036,1.786-.723.416A1.012,1.012,0,0,0,148.6,293.555Z" transform="translate(-115.162 -248.315)" fill="#19538d"/>
          <path id="Trazado_1000746" data-name="Trazado 1000746" d="M66.992,47.166A13.827,13.827,0,0,0,44.76,45.683a3.058,3.058,0,0,0-2.128-.859H41.317a17.481,17.481,0,0,0,1.223-2.475,5.73,5.73,0,0,0,4.818-2.567,5.126,5.126,0,0,0,.309-5.155,4.678,4.678,0,0,0-4.033-2.36l.565-3.914a12.89,12.89,0,0,0-2.89-10.43,17.6,17.6,0,0,0-8.832-5.4,18.039,18.039,0,0,0-9.539-.121,9.709,9.709,0,0,0-6.416,5.058c-4.74,1.452-6.938,5.4-6.043,10.909h0l.634,3.9A4.675,4.675,0,0,0,7.1,34.629a5.125,5.125,0,0,0,.308,5.154,5.729,5.729,0,0,0,4.818,2.566,17.489,17.489,0,0,0,1.223,2.475H12.133a3.06,3.06,0,0,0-3.059,3.055V57.9l-2.2.775C.713,60.839,0,66.022,0,69.732v6.205a1.819,1.819,0,0,0,1.816,1.818H52.95a1.82,1.82,0,0,0,1.819-1.818V69.732c0-.506-.014-.983-.043-1.439l.084,0q.27.011.539.01a13.747,13.747,0,0,0,7.374-2.142,1.013,1.013,0,0,0-1.083-1.712,11.75,11.75,0,0,1-13.208-.4,1.013,1.013,0,0,0-.544-.19l-6.8-.321L43.7,57.276a1.01,1.01,0,0,0,.06-.576,11.676,11.676,0,0,1,5.272-12.083,11.761,11.761,0,0,1,15.7,17,1.013,1.013,0,1,0,1.615,1.223,13.8,13.8,0,0,0,.642-15.678Zm-23.513-9.34V34.287a2.72,2.72,0,0,1,2.409,1.31,3.08,3.08,0,0,1-.232,3.087,3.573,3.573,0,0,1-2.464,1.574,11.08,11.08,0,0,0,.287-2.432ZM9.11,38.684A3.079,3.079,0,0,1,8.879,35.6a2.721,2.721,0,0,1,2.408-1.311v3.538a11.08,11.08,0,0,0,.287,2.432A3.572,3.572,0,0,1,9.11,38.684Zm3.367-10.639c-.529-3.255-.085-7.417,5.034-8.76a1.014,1.014,0,0,0,.68-.6c1.926-4.7,8.376-5.677,13.751-4.211C37.365,15.958,43.3,20.4,42.194,28.063l-.321,2.224c-1.549-2.2-2.968-2.662-6.174-2.669H18.974c-3.212.007-4.57.445-6.125,2.716Zm-6.3,44.132v1.529a4.016,4.016,0,0,0,.545,2.023h-4.7v-6c0-5.052,1.651-7.787,5.522-9.147l1.527-.538V70.178h-.9A2,2,0,0,0,6.178,72.177Zm40.384,1.529a2.029,2.029,0,0,1-2.03,2.022h-34.3A2.028,2.028,0,0,1,8.2,73.706V72.2H46.562Zm-.867-7.915,1.8.085a13.777,13.777,0,0,0,5.178,2.172c.044.523.067,1.079.067,1.684v6h-4.7a4.016,4.016,0,0,0,.545-2.023V72.177a2,2,0,0,0-2-2h-.892ZM42.637,49.138a13.727,13.727,0,0,0-.923,7.632L38.659,64.1a1.013,1.013,0,0,0,.887,1.4l4.123.194v4.483H11.1v-22.3a1.032,1.032,0,0,1,1.033-1.029H24.522a1.013,1.013,0,1,0,0-2.025H15.855a12.968,12.968,0,0,1-2.542-7V33.52c2-3.72,2.535-3.869,5.665-3.876H35.695c3.107.007,3.731.119,5.758,3.876v4.3a12.968,12.968,0,0,1-2.542,7H29.236a1.013,1.013,0,1,0,0,2.025h13.4a1.05,1.05,0,0,1,.906.536,13.8,13.8,0,0,0-.9,1.753Z" transform="translate(0 -11.819)" fill="#19538d"/>
          <path id="Trazado_1000747" data-name="Trazado 1000747" d="M350.815,299.18a1.013,1.013,0,0,0-1.391.343l-1.977,3.27a1.013,1.013,0,0,0-.009,1.033l1.977,3.4a1.013,1.013,0,1,0,1.751-1.018l-1.675-2.882,1.666-2.756A1.013,1.013,0,0,0,350.815,299.18Z" transform="translate(-300.411 -260.256)" fill="#19538d"/>
          <path id="Trazado_1000748" data-name="Trazado 1000748" d="M393.959,297.046l-2.942,7.38a1.013,1.013,0,1,0,1.882.75l2.942-7.38a1.013,1.013,0,1,0-1.882-.75Z" transform="translate(-338.162 -257.985)" fill="#19538d"/>
          <path id="Trazado_1000749" data-name="Trazado 1000749" d="M445.907,299.523a1.013,1.013,0,0,0-1.733,1.048l1.666,2.756-1.675,2.882a1.013,1.013,0,1,0,1.751,1.018l1.977-3.4a1.013,1.013,0,0,0-.009-1.033Z" transform="translate(-384.078 -260.256)" fill="#19538d"/>
        </g>
      </g>
    </g>
    <path id="Trazado_998457" data-name="Trazado 998457" d="M21.193,13.724H3.483l2.43-5.5h17.71Z" transform="translate(406.088 4714.021)" fill="#fff"/>
    <path id="Trazado_998459" data-name="Trazado 998459" d="M21.193,13.724H3.483l2.43-5.5h17.71Z" transform="translate(497.088 4790.021)" fill="#fff"/>
    <path id="Trazado_998458" data-name="Trazado 998458" d="M21.193,13.724H3.483l2.43-5.5h17.71Z" transform="translate(401.088 4719.524)" fill="#9ecfff"/>
    <path id="Trazado_998461" data-name="Trazado 998461" d="M18.607,11.366H3.483L4.872,8.221H20Z" transform="translate(494.518 4795.524)" fill="#9ecfff"/>
    <path id="Trazado_998462" data-name="Trazado 998462" d="M18.607,11.366H3.483L4.872,8.221H20Z" transform="translate(497.088 4734.779)" fill="#9ecfff"/>
    <path id="Trazado_998463" data-name="Trazado 998463" d="M18.607,11.366H3.483L4.872,8.221H20Z" transform="translate(402.902 4780.779)" fill="#9ecfff"/>
  </g>
</svg>
