<svg xmlns="http://www.w3.org/2000/svg" xmlns:xlink="http://www.w3.org/1999/xlink" width="96" height="96" viewBox="0 0 96 96">
  <defs>
    <clipPath id="clip-path">
      <rect id="Rectángulo_455533" data-name="Rectángulo 455533" width="95.999" height="92.163" fill="#19538d"/>
    </clipPath>
  </defs>
  <g id="Grupo_1179843" data-name="Grupo 1179843" transform="translate(-383.746 -8399)">
    <circle id="Elipse_13674" data-name="Elipse 13674" cx="41.5" cy="41.5" r="41.5" transform="translate(389.746 8406)" fill="#19538d"/>
    <g id="Grupo_1179062" data-name="Grupo 1179062" transform="translate(383.745 8399)">
      <rect id="Rectángulo_455531" data-name="Rectángulo 455531" width="96" height="96" transform="translate(0 0)" fill="none"/>
      <g id="Grupo_1179061" data-name="Grupo 1179061" transform="translate(0 2.203)">
        <path id="Trazado_998445" data-name="Trazado 998445" d="M114.467,95.838H96.727l2.4-4.484h17.739Z" transform="translate(-23.693 -22.7)" fill="#19538d"/>
        <path id="Trazado_998446" data-name="Trazado 998446" d="M1.458,86.893,0,89.861H19.558l1.458-2.968Z" transform="translate(0 -21.618)" fill="#19538d"/>
        <path id="Trazado_998447" data-name="Trazado 998447" d="M117.539,31.293H98.809l1.469-3.326h18.73Z" transform="translate(-24.246 -6.956)" fill="#19538d"/>
        <path id="Trazado_998448" data-name="Trazado 998448" d="M28.088,11.547H3.483L4.952,8.221H29.557Z" transform="translate(-0.925 -2.184)" fill="#19538d"/>
        <g id="Grupo_1179060" data-name="Grupo 1179060" transform="translate(0)">
          <g id="Grupo_1179059" data-name="Grupo 1179059" clip-path="url(#clip-path)">
            <path id="Trazado_998449" data-name="Trazado 998449" d="M48.653,99.141a40.772,40.772,0,0,1-39.711-49.9H3.518A46.036,46.036,0,0,0,84.512,87.248h-7.1A40.6,40.6,0,0,1,48.653,99.141" transform="translate(-0.653 -12.277)" fill="#19538d"/>
            <path id="Trazado_998450" data-name="Trazado 998450" d="M110.835,87.933h6.025c.484-.964.923-1.952,1.34-2.953h-5.792c-.487,1.007-1.008,1.994-1.573,2.953" transform="translate(-27.709 -21.189)" fill="#19538d"/>
            <path id="Trazado_998451" data-name="Trazado 998451" d="M95.384,46.081a46.043,46.043,0,0,0-90.011-13.7h5.589A40.752,40.752,0,1,1,87.147,61.291h5.644a45.915,45.915,0,0,0,2.592-15.209" transform="translate(-1.343)" fill="#19538d"/>
            <path id="Trazado_998452" data-name="Trazado 998452" d="M108.562,81.649v2.5h3.277q.594-1.228,1.106-2.5Z" transform="translate(-27.141 -20.358)" fill="#19538d"/>
            <path id="Trazado_998453" data-name="Trazado 998453" d="M126.164,81.649h-4.551q-.444,1.268-.958,2.5h5.509Z" transform="translate(-30.164 -20.358)" fill="#19538d"/>
          </g>
        </g>
        <path id="Trazado_998444" data-name="Trazado 998444" d="M2.2,37.025,0,41.509H13.317l2.2-4.484Z" transform="translate(0 -9.2)" fill="#19538d"/>
      </g>
    </g>
    <g id="Grupo_1181610" data-name="Grupo 1181610" transform="translate(403.48 8420.734)">
      <path id="Trazado_1000258" data-name="Trazado 1000258" d="M14.9,2a5.9,5.9,0,1,0,5.9,5.9A5.9,5.9,0,0,0,14.9,2Zm0,10.106A4.211,4.211,0,1,1,19.106,7.9,4.211,4.211,0,0,1,14.9,12.106Z" transform="translate(-1.105)" fill="#fff"/>
      <path id="Trazado_1000259" data-name="Trazado 1000259" d="M21.682,17.522A6.4,6.4,0,0,0,19.156,17H8.451A6.443,6.443,0,0,0,2,23.451V33a3.369,3.369,0,0,0,3.369,3.369H5.5a3.184,3.184,0,0,0,1.558-.5V51.151a3.782,3.782,0,0,0,6.738,2.324,3.777,3.777,0,0,0,6.738-2.324v-15.4a3.276,3.276,0,0,0,1.836.455,3.487,3.487,0,0,0,2.055-.741A3.057,3.057,0,0,0,25.582,33V23.451a6.459,6.459,0,0,0-3.9-5.929ZM12.2,28.193,13.336,22a3.95,3.95,0,0,0,.455.051A3.95,3.95,0,0,0,14.246,22l1.129,6.182a1.246,1.246,0,0,1-.059.674l-1.524,3.082-1.508-3.049a1.3,1.3,0,0,1-.084-.7Zm2.333-8a1.684,1.684,0,0,1-2.426-1.508h3.369A1.684,1.684,0,0,1,14.532,20.192ZM23.9,33a1.4,1.4,0,0,1-.531,1.154,1.912,1.912,0,0,1-1.078.362,1.684,1.684,0,0,1-1.76-1.684V27.106a.842.842,0,0,0-1.684,0V51.151a2,2,0,0,1-.623,1.457,2.055,2.055,0,0,1-1.482.606,2.089,2.089,0,0,1-2.106-2.063V37.213a.842.842,0,1,0-1.684,0V51.151a2.089,2.089,0,0,1-2.106,2.063A2.063,2.063,0,0,1,9.352,52.6a1.988,1.988,0,0,1-.615-1.449V27.106a.842.842,0,0,0-1.684,0v5.735a1.794,1.794,0,0,1-1.609,1.844A1.694,1.694,0,0,1,3.684,33V23.451a4.75,4.75,0,0,1,2.889-4.379,4.548,4.548,0,0,1,1.878-.387h1.971a3.369,3.369,0,0,0,1.322,2.67l-1.2,6.594a3.007,3.007,0,0,0,.211,1.684l2.282,4.615a.842.842,0,0,0,1.516,0l2.3-4.649a2.965,2.965,0,0,0,.185-1.684l-1.2-6.535a3.369,3.369,0,0,0,1.322-2.7H19.13a4.548,4.548,0,0,1,1.878.387A4.75,4.75,0,0,1,23.9,23.451Z" transform="translate(0 -2.367)" fill="#fff"/>
      <path id="Trazado_1000260" data-name="Trazado 1000260" d="M57.055,2H36.842A.842.842,0,0,0,36,2.842V16.317a.842.842,0,0,0,.842.842H57.055a.842.842,0,0,0,.842-.842V2.842A.842.842,0,0,0,57.055,2Zm-.842,13.475H37.684V3.684H56.213Z" transform="translate(-5.365)" fill="#fff"/>
      <path id="Trazado_1000261" data-name="Trazado 1000261" d="M57.055,23H36.842a.842.842,0,0,0-.842.842V37.317a.842.842,0,0,0,.842.842H57.055a.842.842,0,0,0,.842-.842V23.842A.842.842,0,0,0,57.055,23Zm-.842,13.475H37.684V24.684H56.213Z" transform="translate(-5.365 -3.314)" fill="#fff"/>
      <path id="Trazado_1000262" data-name="Trazado 1000262" d="M57.055,44H36.842a.842.842,0,0,0-.842.842V58.317a.842.842,0,0,0,.842.842H57.055a.842.842,0,0,0,.842-.842V44.842A.842.842,0,0,0,57.055,44Zm-.842,13.475H37.684V45.684H56.213Z" transform="translate(-5.365 -6.627)" fill="#fff"/>
      <path id="Trazado_1000263" data-name="Trazado 1000263" d="M47.77,14.18a.842.842,0,0,0,.6.244h.177a.842.842,0,0,0,.615-.531l2.527-6.738a.845.845,0,0,0-1.583-.59L48.04,12.075l-1.6-1.6a.846.846,0,0,0-1.2,1.2Z" transform="translate(-6.785 -0.634)" fill="#fff"/>
      <path id="Trazado_1000264" data-name="Trazado 1000264" d="M47.77,35.18a.842.842,0,0,0,.6.244h.177a.842.842,0,0,0,.615-.531l2.527-6.738a.845.845,0,0,0-1.583-.59L48.04,33.075l-1.6-1.6a.846.846,0,1,0-1.2,1.2Z" transform="translate(-6.785 -3.948)" fill="#fff"/>
      <path id="Trazado_1000265" data-name="Trazado 1000265" d="M47.77,56.18a.842.842,0,0,0,.6.244h.177a.842.842,0,0,0,.615-.531l2.527-6.738a.845.845,0,1,0-1.583-.59L48.04,54.075l-1.6-1.6a.846.846,0,1,0-1.2,1.2Z" transform="translate(-6.785 -7.261)" fill="#fff"/>
    </g>
  </g>
</svg>
