<svg xmlns="http://www.w3.org/2000/svg" xmlns:xlink="http://www.w3.org/1999/xlink" width="96" height="96" viewBox="0 0 96 96">
  <defs>
    <clipPath id="clip-path">
      <rect id="Rectángulo_455533" data-name="Rectángulo 455533" width="95.999" height="92.163" fill="#19538d"/>
    </clipPath>
  </defs>
  <g id="Grupo_1179839" data-name="Grupo 1179839" transform="translate(-383.746 -8399)">
    <circle id="Elipse_13674" data-name="Elipse 13674" cx="41.5" cy="41.5" r="41.5" transform="translate(389.746 8406)" fill="#19538d"/>
    <g id="Grupo_1179062" data-name="Grupo 1179062" transform="translate(383.745 8399)">
      <rect id="Rectángulo_455531" data-name="Rectángulo 455531" width="96" height="96" transform="translate(0 0)" fill="none"/>
      <g id="Grupo_1179061" data-name="Grupo 1179061" transform="translate(0 2.203)">
        <path id="Trazado_998445" data-name="Trazado 998445" d="M114.467,95.838H96.727l2.4-4.484h17.739Z" transform="translate(-23.693 -22.7)" fill="#19538d"/>
        <path id="Trazado_998446" data-name="Trazado 998446" d="M1.458,86.893,0,89.861H19.558l1.458-2.968Z" transform="translate(0 -21.618)" fill="#19538d"/>
        <path id="Trazado_998447" data-name="Trazado 998447" d="M117.539,31.293H98.809l1.469-3.326h18.73Z" transform="translate(-24.246 -6.956)" fill="#19538d"/>
        <path id="Trazado_998448" data-name="Trazado 998448" d="M28.088,11.547H3.483L4.952,8.221H29.557Z" transform="translate(-0.925 -2.184)" fill="#19538d"/>
        <g id="Grupo_1179060" data-name="Grupo 1179060" transform="translate(0)">
          <g id="Grupo_1179059" data-name="Grupo 1179059" clip-path="url(#clip-path)">
            <path id="Trazado_998449" data-name="Trazado 998449" d="M48.653,99.141a40.772,40.772,0,0,1-39.711-49.9H3.518A46.036,46.036,0,0,0,84.512,87.248h-7.1A40.6,40.6,0,0,1,48.653,99.141" transform="translate(-0.653 -12.277)" fill="#19538d"/>
            <path id="Trazado_998450" data-name="Trazado 998450" d="M110.835,87.933h6.025c.484-.964.923-1.952,1.34-2.953h-5.792c-.487,1.007-1.008,1.994-1.573,2.953" transform="translate(-27.709 -21.189)" fill="#19538d"/>
            <path id="Trazado_998451" data-name="Trazado 998451" d="M95.384,46.081a46.043,46.043,0,0,0-90.011-13.7h5.589A40.752,40.752,0,1,1,87.147,61.291h5.644a45.915,45.915,0,0,0,2.592-15.209" transform="translate(-1.343)" fill="#19538d"/>
            <path id="Trazado_998452" data-name="Trazado 998452" d="M108.562,81.649v2.5h3.277q.594-1.228,1.106-2.5Z" transform="translate(-27.141 -20.358)" fill="#19538d"/>
            <path id="Trazado_998453" data-name="Trazado 998453" d="M126.164,81.649h-4.551q-.444,1.268-.958,2.5h5.509Z" transform="translate(-30.164 -20.358)" fill="#19538d"/>
          </g>
        </g>
        <path id="Trazado_998444" data-name="Trazado 998444" d="M2.2,37.025,0,41.509H13.317l2.2-4.484Z" transform="translate(0 -9.2)" fill="#19538d"/>
      </g>
    </g>
    <g id="Artboard201" transform="translate(391.679 8412.85)">
      <path id="Trazado_1000226" data-name="Trazado 1000226" d="M40.412,16.587,55.43,23.024a.876.876,0,0,1,.531.8V35.973a18.411,18.411,0,0,1-15.2,18.067l-.547.1a.878.878,0,0,1-.3,0l-.547-.1a18.41,18.41,0,0,1-15.2-18.067V23.829a.876.876,0,0,1,.531-.8l15.018-6.438a.876.876,0,0,1,.69,0Zm-.345,1.758L25.924,24.407V35.973A16.652,16.652,0,0,0,39.67,52.314l.4.069.4-.069A16.652,16.652,0,0,0,54.209,35.973V24.407Zm6.9,13.429h.476a1.978,1.978,0,0,1,1.975,1.975V45.47a1.975,1.975,0,0,1-1.975,1.975H32.7a1.978,1.978,0,0,1-1.977-1.975V33.748A1.981,1.981,0,0,1,32.7,31.773h.473V30.119a6.9,6.9,0,1,1,13.8,0Zm-12.045,0h1.008V30.119a4.14,4.14,0,1,1,8.28,0v1.654h1.005V30.119a5.147,5.147,0,1,0-10.294,0Zm2.759,0h4.777V30.119a2.389,2.389,0,1,0-4.777,0ZM32.7,33.525a.225.225,0,0,0-.226.223V45.47a.225.225,0,0,0,.226.223H47.441a.223.223,0,0,0,.223-.223V33.748a.224.224,0,0,0-.223-.223Zm7.373,1.026a3.022,3.022,0,0,1,2,5.283v2.833a2,2,0,0,1-4,0s0-2.833,0-2.833a3.02,3.02,0,0,1,2-5.284Zm0,1.752a1.269,1.269,0,0,0-.665,2.35.876.876,0,0,1,.416.745v3.27a.249.249,0,0,0,.5,0V39.4a.876.876,0,0,1,.416-.745,1.27,1.27,0,0,0-.665-2.35ZM20.884,7a7.24,7.24,0,1,1-7.24,7.24A7.243,7.243,0,0,1,20.884,7Zm0,1.752a5.488,5.488,0,1,0,5.488,5.488,5.491,5.491,0,0,0-5.488-5.488ZM17.434,15.03a.876.876,0,0,1,1.238-1.24l1.061,1.059,3.394-3.077a.876.876,0,1,1,1.177,1.3l-4.011,3.637a.876.876,0,0,1-1.207-.029ZM59.25,7a7.24,7.24,0,1,1-7.24,7.24A7.243,7.243,0,0,1,59.25,7Zm0,1.752a5.488,5.488,0,1,0,5.488,5.488A5.491,5.491,0,0,0,59.25,8.752ZM55.8,15.03a.876.876,0,0,1,1.238-1.24L58.1,14.85l3.394-3.077a.876.876,0,1,1,1.177,1.3l-4.011,3.637a.876.876,0,0,1-1.207-.029Zm3.45,31.79a7.24,7.24,0,1,1-7.24,7.24,7.243,7.243,0,0,1,7.24-7.24Zm0,1.752a5.488,5.488,0,1,0,5.488,5.488A5.491,5.491,0,0,0,59.25,48.572ZM55.8,54.851a.876.876,0,1,1,1.238-1.24L58.1,54.67l3.394-3.077a.876.876,0,1,1,1.177,1.3l-4.011,3.637a.876.876,0,0,1-1.207-.029Zm-34.916-8.03a7.24,7.24,0,1,1-7.24,7.24,7.243,7.243,0,0,1,7.24-7.24Zm0,1.752a5.488,5.488,0,1,0,5.488,5.488A5.491,5.491,0,0,0,20.884,48.572Zm-3.449,6.278a.876.876,0,1,1,1.238-1.24l1.061,1.059,3.394-3.077a.876.876,0,1,1,1.177,1.3l-4.011,3.637a.876.876,0,0,1-1.207-.029Zm1.315-10.6a.876.876,0,0,1-1.615.678,24.884,24.884,0,0,1,1.032-21.362.876.876,0,0,1,1.542.831,23.133,23.133,0,0,0-.959,19.854Zm30.273,12.38a.876.876,0,0,1,.68,1.614,24.9,24.9,0,0,1-19.7-.184.876.876,0,1,1,.71-1.6,23.148,23.148,0,0,0,18.307.171ZM60.4,24.353a.876.876,0,0,1,1.54-.834A24.884,24.884,0,0,1,63,44.934a.876.876,0,1,1-1.615-.678,23.132,23.132,0,0,0-.985-19.9ZM31.327,13.939a.876.876,0,0,1-.664-1.621,24.907,24.907,0,0,1,18.989.075.876.876,0,1,1-.677,1.616,23.155,23.155,0,0,0-17.648-.07Z" transform="translate(0)" fill="#fff" fill-rule="evenodd"/>
    </g>
  </g>
</svg>
