<svg xmlns="http://www.w3.org/2000/svg" xmlns:xlink="http://www.w3.org/1999/xlink" width="96" height="96" viewBox="0 0 96 96">
  <defs>
    <clipPath id="clip-path">
      <rect id="Rectángulo_455533" data-name="Rectángulo 455533" width="95.999" height="92.163" fill="#19538d"/>
    </clipPath>
  </defs>
  <g id="Grupo_1179842" data-name="Grupo 1179842" transform="translate(-383.746 -8399)">
    <circle id="Elipse_13674" data-name="Elipse 13674" cx="41.5" cy="41.5" r="41.5" transform="translate(389.746 8406)" fill="#19538d"/>
    <g id="Grupo_1179062" data-name="Grupo 1179062" transform="translate(383.745 8399)">
      <rect id="Rectángulo_455531" data-name="Rectángulo 455531" width="96" height="96" transform="translate(0 0)" fill="none"/>
      <g id="Grupo_1179061" data-name="Grupo 1179061" transform="translate(0 2.203)">
        <path id="Trazado_998445" data-name="Trazado 998445" d="M114.467,95.838H96.727l2.4-4.484h17.739Z" transform="translate(-23.693 -22.7)" fill="#19538d"/>
        <path id="Trazado_998446" data-name="Trazado 998446" d="M1.458,86.893,0,89.861H19.558l1.458-2.968Z" transform="translate(0 -21.618)" fill="#19538d"/>
        <path id="Trazado_998447" data-name="Trazado 998447" d="M117.539,31.293H98.809l1.469-3.326h18.73Z" transform="translate(-24.246 -6.956)" fill="#19538d"/>
        <path id="Trazado_998448" data-name="Trazado 998448" d="M28.088,11.547H3.483L4.952,8.221H29.557Z" transform="translate(-0.925 -2.184)" fill="#19538d"/>
        <g id="Grupo_1179060" data-name="Grupo 1179060" transform="translate(0)">
          <g id="Grupo_1179059" data-name="Grupo 1179059" clip-path="url(#clip-path)">
            <path id="Trazado_998449" data-name="Trazado 998449" d="M48.653,99.141a40.772,40.772,0,0,1-39.711-49.9H3.518A46.036,46.036,0,0,0,84.512,87.248h-7.1A40.6,40.6,0,0,1,48.653,99.141" transform="translate(-0.653 -12.277)" fill="#19538d"/>
            <path id="Trazado_998450" data-name="Trazado 998450" d="M110.835,87.933h6.025c.484-.964.923-1.952,1.34-2.953h-5.792c-.487,1.007-1.008,1.994-1.573,2.953" transform="translate(-27.709 -21.189)" fill="#19538d"/>
            <path id="Trazado_998451" data-name="Trazado 998451" d="M95.384,46.081a46.043,46.043,0,0,0-90.011-13.7h5.589A40.752,40.752,0,1,1,87.147,61.291h5.644a45.915,45.915,0,0,0,2.592-15.209" transform="translate(-1.343)" fill="#19538d"/>
            <path id="Trazado_998452" data-name="Trazado 998452" d="M108.562,81.649v2.5h3.277q.594-1.228,1.106-2.5Z" transform="translate(-27.141 -20.358)" fill="#19538d"/>
            <path id="Trazado_998453" data-name="Trazado 998453" d="M126.164,81.649h-4.551q-.444,1.268-.958,2.5h5.509Z" transform="translate(-30.164 -20.358)" fill="#19538d"/>
          </g>
        </g>
        <path id="Trazado_998444" data-name="Trazado 998444" d="M2.2,37.025,0,41.509H13.317l2.2-4.484Z" transform="translate(0 -9.2)" fill="#19538d"/>
      </g>
    </g>
    <g id="Grupo_1181609" data-name="Grupo 1181609" transform="translate(390.725 8421.805)">
      <path id="Trazado_1000247" data-name="Trazado 1000247" d="M151.1,108.372H136.284a.753.753,0,1,0,0,1.506H151.1a.753.753,0,0,0,0-1.506Z" transform="translate(-107.096 -97.489)" fill="#fff"/>
      <path id="Trazado_1000248" data-name="Trazado 1000248" d="M72.082,145.234a.753.753,0,0,0,.753.753h11.34a.753.753,0,1,0,0-1.506H72.835A.753.753,0,0,0,72.082,145.234Z" transform="translate(-50.018 -129.972)" fill="#fff"/>
      <path id="Trazado_1000249" data-name="Trazado 1000249" d="M242.561,144.481h-8.218a.753.753,0,0,0,0,1.506h8.218a.753.753,0,1,0,0-1.506Z" transform="translate(-195.307 -129.972)" fill="#fff"/>
      <path id="Trazado_1000250" data-name="Trazado 1000250" d="M72.835,184.16h11.34a.753.753,0,0,0,0-1.506H72.835a.753.753,0,1,0,0,1.506Z" transform="translate(-50.018 -164.312)" fill="#fff"/>
      <path id="Trazado_1000251" data-name="Trazado 1000251" d="M233.589,183.407a.753.753,0,0,0,.753.753h11.34a.753.753,0,0,0,0-1.506h-11.34A.753.753,0,0,0,233.589,183.407Z" transform="translate(-195.307 -164.312)" fill="#fff"/>
      <path id="Trazado_1000252" data-name="Trazado 1000252" d="M72.835,222.332h11.34a.753.753,0,0,0,0-1.506H72.835a.753.753,0,1,0,0,1.506Z" transform="translate(-50.018 -198.651)" fill="#fff"/>
      <path id="Trazado_1000253" data-name="Trazado 1000253" d="M246.435,221.579a.753.753,0,0,0-.753-.753h-11.34a.753.753,0,0,0,0,1.506h11.34A.753.753,0,0,0,246.435,221.579Z" transform="translate(-195.307 -198.651)" fill="#fff"/>
      <path id="Trazado_1000254" data-name="Trazado 1000254" d="M55.959,0a8.634,8.634,0,0,0-1.345.106C54.387.046,26.168.009,25.865.014c-.653.011-.992.515-1.436.934L20.024,5.1,17.876,7.128c-.39.368-1.347,1.022-1.393,1.579,0,.008,0,.017,0,.025s0,.025,0,.038V48.583a2.811,2.811,0,0,0,2.808,2.808H46.332a.753.753,0,1,0,0-1.506H19.288a1.3,1.3,0,0,1-1.3-1.3V9.522h5.677a2.811,2.811,0,0,0,2.808-2.808V1.52H51.084a8.6,8.6,0,0,0,4.122,15.65V48.583a1.3,1.3,0,0,1-1.3,1.3h-4.05a.753.753,0,1,0,0,1.506H53.9a2.811,2.811,0,0,0,2.808-2.808V17.171A8.6,8.6,0,0,0,55.959,0ZM24.964,6.715a1.3,1.3,0,0,1-1.3,1.3H19.129l5.835-5.5ZM55.959,15.7a7.1,7.1,0,1,1,7.1-7.1A7.1,7.1,0,0,1,55.959,15.7Z" fill="#fff"/>
      <path id="Trazado_1000255" data-name="Trazado 1000255" d="M365.3,28.779l-3.291-3.29a2.228,2.228,0,0,0-3.146,0l-3.218,3.218a2.365,2.365,0,0,0-.106,3.182,2.116,2.116,0,0,0,2.768.386v2.556a2.225,2.225,0,1,0,4.45,0V32.355a2.225,2.225,0,0,0,2.544-3.575Zm-1.065,2.082a.719.719,0,0,1-1.016,0l-.087-.087a1.1,1.1,0,0,0-1.882.78v3.279a.719.719,0,1,1-1.437,0V31.364a1.1,1.1,0,0,0-1.882-.78l-.344.344a.612.612,0,0,1-.915-.031.846.846,0,0,1,.037-1.124l3.218-3.218a.719.719,0,0,1,1.016,0l3.291,3.29a.718.718,0,0,1,0,1.016Z" transform="translate(-304.503 -22.345)" fill="#fff"/>
      <path id="Trazado_1000256" data-name="Trazado 1000256" d="M149.768,261.972a7.762,7.762,0,0,0-4.935,1.774.753.753,0,0,0,.96,1.161,6.226,6.226,0,1,1-1.832,2.517.753.753,0,1,0-1.4-.555,7.748,7.748,0,0,0,2.408,8.931v5.421a1.34,1.34,0,0,0,1.818,1.251l2.981-1.14,2.981,1.14a1.34,1.34,0,0,0,1.818-1.251V275.8a7.745,7.745,0,0,0-4.8-13.828Zm3.293,19.007-2.815-1.076a1.338,1.338,0,0,0-.957,0l-2.815,1.076v-4.244a7.731,7.731,0,0,0,6.587,0Z" transform="translate(-112.931 -235.665)" fill="#fff"/>
      <path id="Trazado_1000257" data-name="Trazado 1000257" d="M182.2,294.174a1.44,1.44,0,0,0-1.169-.986l-1.45-.211-.649-1.314a1.449,1.449,0,0,0-2.6,0l-.648,1.314-1.45.211a1.449,1.449,0,0,0-.8,2.471l1.049,1.023-.248,1.444a1.447,1.447,0,0,0,2.1,1.527l1.3-.682,1.3.682a1.449,1.449,0,0,0,2.1-1.527l-.248-1.444,1.049-1.023A1.439,1.439,0,0,0,182.2,294.174Zm-2.625,1.582a1.089,1.089,0,0,0-.313.964l.265,1.545-1.388-.73a1.089,1.089,0,0,0-1.014,0l-1.388.73.265-1.545a1.089,1.089,0,0,0-.313-.964l-1.123-1.094,1.551-.225a1.089,1.089,0,0,0,.82-.6l.694-1.406.694,1.406a1.089,1.089,0,0,0,.82.6l1.551.225Z" transform="translate(-140.8 -261.648)" fill="#fff"/>
    </g>
  </g>
</svg>
