<svg xmlns="http://www.w3.org/2000/svg" width="69.323" height="69.323" viewBox="0 0 69.323 69.323">
  <g id="img27" transform="translate(-609.711 -7155.87)">
    <rect id="Rectangle_456225" data-name="Rectangle 456225" width="69.323" height="69.323" transform="translate(609.711 7155.87)" fill="#62249e"/>
    <path id="Path_999514" data-name="Path 999514" d="M98.4,30.707a2.7,2.7,0,0,0,2.7-2.7V6.63a2.7,2.7,0,0,0-2.7-2.7H87.392v-1.3a2.635,2.635,0,1,0-5.271,0v1.3H71.112a2.7,2.7,0,0,0-2.7,2.7V28.006a2.7,2.7,0,0,0,2.7,2.7h7.115l-2.384,4.658H73.066a1.046,1.046,0,0,0,0,2.091h1.706l-2.883,5.631a1.046,1.046,0,0,0,1.861.954l3.372-6.584h15.27l3.371,6.584a1.046,1.046,0,0,0,1.862-.954l-2.884-5.631h1.706a1.046,1.046,0,1,0,0-2.091H93.671l-2.384-4.658ZM84.213,2.628a.544.544,0,1,1,1.088,0v1.3H84.213Zm7.108,32.736H78.192l2.385-4.658h8.36ZM93.127,9.52a2.522,2.522,0,1,1,0,5.045,2.369,2.369,0,0,1-.241-.012L90.3,19.034A2.522,2.522,0,1,1,85.724,20.5c0-.082,0-.162.012-.241l-4.481-2.587a2.51,2.51,0,0,1-1.463.469c-.081,0-.162,0-.242-.012l-3.734,6.467A1.046,1.046,0,0,1,74,23.547l3.734-6.468a2.522,2.522,0,1,1,4.575-1.464,2.4,2.4,0,0,1-.012.242l4.482,2.587a2.5,2.5,0,0,1,1.463-.469c.081,0,.162,0,.241.011l2.587-4.481A2.521,2.521,0,0,1,93.127,9.52ZM79.791,16.046a.431.431,0,1,1,.431-.431A.431.431,0,0,1,79.791,16.046Zm8.455,4.881a.43.43,0,1,1,.431-.431.43.43,0,0,1-.431.431Zm4.88-8.454a.431.431,0,1,1,.432-.43.431.431,0,0,1-.432.43Z" transform="translate(559.953 7168.23)" fill="#fff" fill-rule="evenodd"/>
  </g>
</svg>
