<svg xmlns="http://www.w3.org/2000/svg" width="291" height="240" viewBox="0 0 291 240">
  <g id="img24" transform="translate(-1122.711 -7132)">
    <rect id="Rectangle_456221" data-name="Rectangle 456221" width="291" height="240" transform="translate(1122.711 7132)" fill="#cf9eff"/>
    <circle id="Ellipse_13695" data-name="Ellipse 13695" cx="78.5" cy="78.5" r="78.5" transform="translate(1246.711 7143)" fill="#f1e2ff"/>
    <g id="_243704983_7a4938cd-15ea-4bb8-ade3-bb897506f9c7" data-name="243704983_7a4938cd-15ea-4bb8-ade3-bb897506f9c7" transform="translate(1132.712 7150.205)">
      <rect id="Rectangle_456650" data-name="Rectangle 456650" width="227.922" height="12.359" transform="translate(5.728 175.478)" fill="#fff" stroke="#19538d" stroke-linecap="round" stroke-miterlimit="10" stroke-width="2"/>
      <g id="Rectangle_456651" data-name="Rectangle 456651" transform="translate(10.998 188.621)" fill="#fff" stroke="#19538d" stroke-linecap="round" stroke-miterlimit="10" stroke-width="2">
        <rect width="14.176" height="32.895" stroke="none"/>
        <rect x="1" y="1" width="12.176" height="30.895" fill="none"/>
      </g>
      <g id="Rectangle_456652" data-name="Rectangle 456652" transform="translate(37.987 188.621)" fill="#fff" stroke="#19538d" stroke-linecap="round" stroke-miterlimit="10" stroke-width="2">
        <rect width="14.176" height="32.895" stroke="none"/>
        <rect x="1" y="1" width="12.176" height="30.895" fill="none"/>
      </g>
      <rect id="Rectangle_456653" data-name="Rectangle 456653" width="14.176" height="32.895" transform="translate(154.632 188.621)" fill="#fff"/>
      <path id="Path_999519" data-name="Path 999519" d="M403.824,521.043H280.6V446.227a3.029,3.029,0,0,1,3.029-3.029H400.795a3.029,3.029,0,0,1,3.029,3.029Z" transform="translate(-246.644 -365.308)" fill="#fff" stroke="#19538d" stroke-linecap="round" stroke-miterlimit="10" stroke-width="2"/>
      <rect id="Rectangle_456654" data-name="Rectangle 456654" width="22.991" height="13.572" transform="translate(83.834 156.766)" fill="#7dbfff"/>
      <rect id="Rectangle_456655" data-name="Rectangle 456655" width="36.258" height="4.725" transform="translate(77.207 170.497)" fill="#7dbfff"/>
      <rect id="Rectangle_456656" data-name="Rectangle 456656" width="123.222" height="9.328" transform="translate(33.958 147.144)" fill="#fff" stroke="#19538d" stroke-linecap="round" stroke-miterlimit="10" stroke-width="2"/>
      <g id="Group_1181494" data-name="Group 1181494" transform="translate(14.45 1.007)">
        <rect id="Rectangle_456657" data-name="Rectangle 456657" width="81.695" height="65.473" transform="translate(0 0)" fill="#fff" stroke="#19538d" stroke-linecap="round" stroke-miterlimit="10" stroke-width="2"/>
        <rect id="Rectangle_456658" data-name="Rectangle 456658" width="81.695" height="11.721" transform="translate(0 0)" fill="#fff" stroke="#19538d" stroke-linecap="round" stroke-miterlimit="10" stroke-width="2"/>
        <rect id="Rectangle_456659" data-name="Rectangle 456659" width="25.628" height="4.461" transform="translate(14.082 17.668)" fill="#ffd470"/>
        <rect id="Rectangle_456660" data-name="Rectangle 456660" width="25.628" height="4.461" transform="translate(44.521 17.668)" fill="#0019fa"/>
        <rect id="Rectangle_456661" data-name="Rectangle 456661" width="25.628" height="4.461" transform="translate(14.082 42.844)" fill="#ffd470"/>
        <rect id="Rectangle_456662" data-name="Rectangle 456662" width="25.628" height="4.461" transform="translate(44.521 42.844)" fill="#2f3cba"/>
        <rect id="Rectangle_456663" data-name="Rectangle 456663" width="25.628" height="4.461" transform="translate(23.179 25.978)" fill="#2f3cba"/>
        <rect id="Rectangle_456664" data-name="Rectangle 456664" width="10.234" height="4.461" transform="translate(53.618 25.978)" fill="#ffd470"/>
        <rect id="Rectangle_456665" data-name="Rectangle 456665" width="25.628" height="4.461" transform="translate(23.179 34.287)" fill="#0019fa"/>
        <rect id="Rectangle_456666" data-name="Rectangle 456666" width="10.234" height="4.461" transform="translate(53.618 34.287)" fill="#ffd470"/>
        <rect id="Rectangle_456667" data-name="Rectangle 456667" width="25.628" height="4.461" transform="translate(23.179 51.011)" fill="#0019fa"/>
        <rect id="Rectangle_456668" data-name="Rectangle 456668" width="10.234" height="4.461" transform="translate(53.618 51.011)" fill="#0019fa"/>
        <rect id="Rectangle_456669" data-name="Rectangle 456669" width="5.117" height="4.461" transform="translate(66.912 34.287)" fill="#2f3cba"/>
        <circle id="Ellipse_13692" data-name="Ellipse 13692" cx="2.449" cy="2.449" r="2.449" transform="translate(6.035 17.668)" fill="none" stroke="#19538d" stroke-linecap="round" stroke-miterlimit="10" stroke-width="2"/>
        <circle id="Ellipse_13693" data-name="Ellipse 13693" cx="2.449" cy="2.449" r="2.449" transform="translate(60.613 3.411)" fill="none" stroke="#19538d" stroke-linecap="round" stroke-miterlimit="10" stroke-width="2"/>
        <circle id="Ellipse_13694" data-name="Ellipse 13694" cx="2.449" cy="2.449" r="2.449" transform="translate(68.484 3.411)" fill="none" stroke="#19538d" stroke-linecap="round" stroke-miterlimit="10" stroke-width="2"/>
        <line id="Line_3250" data-name="Line 3250" y2="37.704" transform="translate(8.484 22.567)" fill="none" stroke="#19538d" stroke-linecap="round" stroke-miterlimit="10" stroke-width="2"/>
        <line id="Line_3251" data-name="Line 3251" x2="14.694" transform="translate(8.484 28.602)" fill="none" stroke="#19538d" stroke-linecap="round" stroke-miterlimit="10" stroke-width="2"/>
        <line id="Line_3252" data-name="Line 3252" x1="14.694" transform="translate(8.484 36.518)" fill="none" stroke="#19538d" stroke-linecap="round" stroke-miterlimit="10" stroke-width="2"/>
        <line id="Line_3253" data-name="Line 3253" x1="5.598" transform="translate(8.484 45.075)" fill="none" stroke="#19538d" stroke-linecap="round" stroke-miterlimit="10" stroke-width="2"/>
        <line id="Line_3254" data-name="Line 3254" x1="14.694" transform="translate(8.484 53.242)" fill="none" stroke="#19538d" stroke-linecap="round" stroke-miterlimit="10" stroke-width="2"/>
      </g>
      <g id="Group_1181495" data-name="Group 1181495" transform="translate(46.304 88.355)">
        <rect id="Rectangle_456670" data-name="Rectangle 456670" width="56.188" height="45.031" fill="#fff" stroke="#0019fa" stroke-linecap="round" stroke-miterlimit="10" stroke-width="2"/>
        <rect id="Rectangle_456671" data-name="Rectangle 456671" width="56.188" height="8.061" fill="#fff" stroke="#0019fa" stroke-linecap="round" stroke-miterlimit="10" stroke-width="2"/>
        <rect id="Rectangle_456672" data-name="Rectangle 456672" width="17.626" height="3.068" transform="translate(9.685 12.152)" fill="#ffd470"/>
        <rect id="Rectangle_456673" data-name="Rectangle 456673" width="17.626" height="3.068" transform="translate(30.62 12.152)" fill="#0019fa"/>
        <rect id="Rectangle_456674" data-name="Rectangle 456674" width="17.626" height="3.068" transform="translate(9.685 29.467)" fill="#ffd470"/>
        <rect id="Rectangle_456675" data-name="Rectangle 456675" width="17.626" height="3.068" transform="translate(30.62 29.467)" fill="#2f3cba"/>
        <rect id="Rectangle_456676" data-name="Rectangle 456676" width="17.626" height="3.068" transform="translate(15.942 17.867)" fill="#2f3cba"/>
        <rect id="Rectangle_456677" data-name="Rectangle 456677" width="7.038" height="3.068" transform="translate(36.877 17.867)" fill="#ffd470"/>
        <rect id="Rectangle_456678" data-name="Rectangle 456678" width="17.626" height="3.068" transform="translate(15.942 23.582)" fill="#0019fa"/>
        <rect id="Rectangle_456679" data-name="Rectangle 456679" width="7.038" height="3.068" transform="translate(36.877 23.582)" fill="#ffd470"/>
        <rect id="Rectangle_456680" data-name="Rectangle 456680" width="17.626" height="3.068" transform="translate(15.942 35.084)" fill="#0019fa"/>
        <rect id="Rectangle_456681" data-name="Rectangle 456681" width="7.038" height="3.068" transform="translate(36.877 35.084)" fill="#0019fa"/>
        <rect id="Rectangle_456682" data-name="Rectangle 456682" width="3.519" height="3.068" transform="translate(46.021 23.582)" fill="#2f3cba"/>
        <path id="Path_999520" data-name="Path 999520" d="M332.642,511.588a1.684,1.684,0,1,1-1.684-1.684A1.685,1.685,0,0,1,332.642,511.588Z" transform="translate(-325.122 -497.752)" fill="none" stroke="#0019fa" stroke-linecap="round" stroke-miterlimit="10" stroke-width="2"/>
        <path id="Path_999521" data-name="Path 999521" d="M442.371,482.923a1.684,1.684,0,1,1-1.684-1.684A1.684,1.684,0,0,1,442.371,482.923Z" transform="translate(-397.314 -478.893)" fill="none" stroke="#0019fa" stroke-linecap="round" stroke-miterlimit="10" stroke-width="2"/>
        <path id="Path_999522" data-name="Path 999522" d="M458.2,482.923a1.684,1.684,0,1,1-1.684-1.684A1.684,1.684,0,0,1,458.2,482.923Z" transform="translate(-407.727 -478.893)" fill="none" stroke="#0019fa" stroke-linecap="round" stroke-miterlimit="10" stroke-width="2"/>
        <line id="Line_3255" data-name="Line 3255" y2="25.932" transform="translate(5.835 15.521)" fill="none" stroke="#0019fa" stroke-linecap="round" stroke-miterlimit="10" stroke-width="2"/>
        <line id="Line_3256" data-name="Line 3256" x2="10.107" transform="translate(5.835 19.672)" fill="none" stroke="#0019fa" stroke-linecap="round" stroke-miterlimit="10" stroke-width="2"/>
        <line id="Line_3257" data-name="Line 3257" x1="10.107" transform="translate(5.835 25.116)" fill="none" stroke="#0019fa" stroke-linecap="round" stroke-miterlimit="10" stroke-width="2"/>
        <line id="Line_3258" data-name="Line 3258" x1="3.85" transform="translate(5.835 31.001)" fill="none" stroke="#0019fa" stroke-linecap="round" stroke-miterlimit="10" stroke-width="2"/>
        <line id="Line_3259" data-name="Line 3259" x1="10.107" transform="translate(5.835 36.618)" fill="none" stroke="#0019fa" stroke-linecap="round" stroke-miterlimit="10" stroke-width="2"/>
      </g>
      <g id="Group_1181497" data-name="Group 1181497" transform="translate(111.059 19.332)">
        <path id="Path_999523" data-name="Path 999523" d="M508.062,279.738v24.779h28.625l11.606,11.606V304.517h10.152V279.738Z" transform="translate(-508.062 -279.738)" fill="none" stroke="#19538d" stroke-linecap="round" stroke-miterlimit="10" stroke-width="2"/>
        <g id="Group_1181496" data-name="Group 1181496" transform="translate(10.286 3.999)">
          <path id="Path_999524" data-name="Path 999524" d="M599.691,309.753v-3.134l5.758-1.919-5.758-1.919v-3.117l8.752,3.487v3.117Z" transform="translate(-578.631 -296.846)" fill="#19538d"/>
          <path id="Path_999525" data-name="Path 999525" d="M574.5,291.427h2.712l-7.8,16.306H566.7Z" transform="translate(-556.924 -291.427)" fill="#19538d"/>
          <path id="Path_999526" data-name="Path 999526" d="M546.881,309.752l-8.752-3.487v-3.117l8.752-3.487V302.8l-5.758,1.919,5.758,1.919Z" transform="translate(-538.129 -296.845)" fill="#19538d"/>
        </g>
        <g id="Group_1181503" data-name="Group 1181503" transform="translate(118.385 52.233)">
          <path id="Path_999524-2" data-name="Path 999524" d="M599.691,309.753v-3.134l5.758-1.919-5.758-1.919v-3.117l8.752,3.487v3.117Z" transform="translate(-578.631 -296.846)" fill="#19538d"/>
          <path id="Path_999525-2" data-name="Path 999525" d="M574.5,291.427h2.712l-7.8,16.306H566.7Z" transform="translate(-556.924 -291.427)" fill="#19538d"/>
          <path id="Path_999526-2" data-name="Path 999526" d="M546.881,309.752l-8.752-3.487v-3.117l8.752-3.487V302.8l-5.758,1.919,5.758,1.919Z" transform="translate(-538.129 -296.845)" fill="#19538d"/>
        </g>
      </g>
      <g id="Group_1181499" data-name="Group 1181499" transform="translate(215.962 67.763)">
        <path id="Path_999527" data-name="Path 999527" d="M870.086,416v27.229H838.629l-12.754,12.754V443.229H814.719V416Z" transform="translate(-814.719 -416)" fill="none" stroke="#0019fa" stroke-linecap="round" stroke-miterlimit="10" stroke-width="2"/>
      </g>
      <g id="Group_1181500" data-name="Group 1181500" transform="translate(182.946)">
        <path id="Path_999532" data-name="Path 999532" d="M779.577,304.692a9.768,9.768,0,0,0-2.4.438l-2.338-1.982-3.949,2.885,1.167,2.8a9.936,9.936,0,0,0-1.36,2.658l-2.938.708v4.892l2.93.7a9.924,9.924,0,0,0,1.084,2.268l-1.293,2.726,3.8,3.075,2.407-1.846a9.9,9.9,0,0,0,2.419.568l1.315,2.747,4.784-1.021.08-3.079a9.912,9.912,0,0,0,1.914-1.486l3.01.715,2.215-4.36-2.371-2.023a10.026,10.026,0,0,0,.1-1.423q0-.485-.046-.96l2.472-1.907-2-4.464-3.065.571a9.932,9.932,0,0,0-1.818-1.555l.072-3.108-4.728-1.255Zm4.666,9.967a4.075,4.075,0,1,1-4.076-4.074A4.076,4.076,0,0,1,784.243,314.659Z" transform="translate(-750.669 -275.04)" fill="#fff" stroke="#19538d" stroke-linecap="round" stroke-miterlimit="10" stroke-width="2"/>
        <path id="Path_999533" data-name="Path 999533" d="M726.38,262.277a8.615,8.615,0,0,0-1.967.872L722,261.935l-2.786,3.289,1.579,2.159a8.767,8.767,0,0,0-.615,2.558l-2.371,1.215,1.013,4.191,2.656,0a8.738,8.738,0,0,0,1.4,1.718l-.543,2.6,3.894,1.847,1.68-2.079a8.71,8.71,0,0,0,2.189-.014l1.7,2.081,3.887-1.865-.569-2.654a8.734,8.734,0,0,0,1.332-1.669l2.727-.011.995-4.194-2.45-1.243a8.923,8.923,0,0,0-.208-1.24q-.1-.416-.238-.812l1.722-2.146-2.636-3.411-2.508,1.124a8.754,8.754,0,0,0-1.879-.955l-.582-2.677-4.31-.1Zm6.061,7.572a3.591,3.591,0,1,1-4.335-2.647A3.593,3.593,0,0,1,732.441,269.85Z" transform="translate(-717.808 -247.191)" fill="#ffd470"/>
        <path id="Path_999534" data-name="Path 999534" d="M788.788,225.937a9.768,9.768,0,0,0-2.4.438l-2.338-1.982-3.949,2.885,1.167,2.8a9.933,9.933,0,0,0-1.36,2.658l-2.939.708v4.891l2.93.7a9.919,9.919,0,0,0,1.084,2.268l-1.293,2.726,3.8,3.075,2.407-1.846a9.9,9.9,0,0,0,2.419.568l1.315,2.747,4.784-1.021.08-3.079a9.916,9.916,0,0,0,1.914-1.486l3.01.715,2.215-4.36-2.371-2.023a10.035,10.035,0,0,0,.1-1.423q0-.485-.046-.96l2.472-1.907-2-4.464-3.065.571a9.935,9.935,0,0,0-1.818-1.555l.072-3.108-4.728-1.255Zm4.666,9.966a4.075,4.075,0,1,1-4.076-4.074A4.076,4.076,0,0,1,793.453,235.9Z" transform="translate(-756.729 -223.226)" fill="#19538d"/>
      </g>
      <g id="Group_1181501" data-name="Group 1181501" transform="translate(105.87 95.708)">
        <rect id="Rectangle_456683" data-name="Rectangle 456683" width="38.488" height="42.453" transform="translate(0)" fill="#fff" stroke="#0019fa" stroke-linecap="round" stroke-miterlimit="10" stroke-width="2"/>
        <rect id="Rectangle_456684" data-name="Rectangle 456684" width="38.488" height="6.542" transform="translate(0)" fill="#fff" stroke="#0019fa" stroke-linecap="round" stroke-miterlimit="10" stroke-width="2"/>
        <rect id="Rectangle_456685" data-name="Rectangle 456685" width="14.735" height="12.594" transform="translate(19.969 10.568)" fill="#0019fa"/>
        <rect id="Rectangle_456686" data-name="Rectangle 456686" width="12.239" height="2.094" transform="translate(4.59 10.568)" fill="#ffd470"/>
        <rect id="Rectangle_456687" data-name="Rectangle 456687" width="30.114" height="2.094" transform="translate(4.59 25.584)" fill="#fff" stroke="#0019fa" stroke-linecap="round" stroke-miterlimit="10" stroke-width="2"/>
        <rect id="Rectangle_456688" data-name="Rectangle 456688" width="30.114" height="2.094" transform="translate(4.59 29.717)" fill="#fff" stroke="#0019fa" stroke-linecap="round" stroke-miterlimit="10" stroke-width="2"/>
        <rect id="Rectangle_456689" data-name="Rectangle 456689" width="30.114" height="2.094" transform="translate(4.59 33.849)" fill="#fff" stroke="#0019fa" stroke-linecap="round" stroke-miterlimit="10" stroke-width="2"/>
        <rect id="Rectangle_456690" data-name="Rectangle 456690" width="12.239" height="8.005" transform="translate(4.59 15.157)" fill="#ffd470"/>
      </g>
      <path id="Path_999535" data-name="Path 999535" d="M427.1,670.758l22.991,7.393v-7.393Z" transform="translate(-343.268 -514.1)" fill="#19538d"/>
      <path id="Path_999536" data-name="Path 999536" d="M213.484,760.372l14.176,9.542v-9.542Z" transform="translate(-202.486 -571.751)" fill="#19538d"/>
      <path id="Path_999537" data-name="Path 999537" d="M292.379,760.372l14.176,9.542v-9.542Z" transform="translate(-254.392 -571.751)" fill="#19538d"/>
      <rect id="Rectangle_456691" data-name="Rectangle 456691" width="14.176" height="9.541" transform="translate(154.632 188.621)" fill="#19538d" stroke="#000" stroke-miterlimit="10" stroke-width="2"/>
      <path id="Path_999538" data-name="Path 999538" d="M658.876,461.221c0,3.862-2.4,7-5.364,7a3.294,3.294,0,0,1-.42-.025l.007.025a92.6,92.6,0,0,1-.755,13.575c-10.467,2.406-15.439-4.228-17.76-12.012a2.592,2.592,0,0,1-1.132.626,2.255,2.255,0,1,1-1.132-4.349,2.547,2.547,0,0,1,1.36.014,65.742,65.742,0,0,1-.94-15.7,37.271,37.271,0,0,0,16.45,6.7,5.091,5.091,0,0,1,4.321-2.854C656.473,454.224,658.876,457.356,658.876,461.221Z" transform="translate(-477.269 -370.623)" fill="#ffc0bb" stroke="#000" stroke-miterlimit="10" stroke-width="2"/>
      <path id="Path_999539" data-name="Path 999539" d="M640.477,465.719a4.5,4.5,0,0,1,3.959-2.557,4.045,4.045,0,0,1,3.688,2.557Z" transform="translate(-483.833 -379.216)" fill="#1a1a1a"/>
      <path id="Path_999540" data-name="Path 999540" d="M670.143,593.615c-11.592,11.8-35.481,15.375-53.512,16.3a207.748,207.748,0,0,1-23.063-.06c-5.954-11.428,8.588-30,9.087-30.637l-.011.011c-1.018.836-28.662,23.437-45.546,14.752-17.2-8.844,7.634-53.736,7.634-53.736l13.468,3.694,2.314-3.694,0,0c9.723-5.146,19.472,1.883,19.472,1.883a101.742,101.742,0,0,0,16.479,9.151c9.934,4.243,21.462,6.5,25.686-2.972,7.684-17.226-12.307-26.252-13.888-26.936a.341.341,0,0,0,.043.014q1.137.4,2.239.893a.506.506,0,0,0,.064.025c17.785,7.93,28.48,32.146,34.178,50.173A178.115,178.115,0,0,1,670.143,593.615Z" transform="translate(-425.272 -414.506)" fill="#ffd470"/>
      <path id="Path_999541" data-name="Path 999541" d="M774.427,521.25a13.341,13.341,0,0,1-1.089,1.118Z" transform="translate(-571.353 -416.996)" fill="none" stroke="#f0f" stroke-miterlimit="10" stroke-width="2"/>
      <path id="Path_999542" data-name="Path 999542" d="M817.848,574.263c-5.7-18.027-16.393-42.244-34.178-50.173,9.966,4.093,47.08,20.515,48.86,38.969C833.16,569.568,826.878,572.847,817.848,574.263Z" transform="translate(-578.33 -418.158)" fill="#ffd470" stroke="#000" stroke-linecap="round" stroke-linejoin="round" stroke-miterlimit="10" stroke-width="2"/>
      <line id="Line_3260" data-name="Line 3260" x1="19.249" y2="28.668" transform="translate(136.576 123.861)" fill="none" stroke="#1a1a1a" stroke-linecap="round" stroke-miterlimit="10" stroke-width="2"/>
      <path id="Path_999543" data-name="Path 999543" d="M591.088,549.516l4.63-9.04a7.587,7.587,0,0,1,5.591-4.042c4.672-.722,12.231-1.613,14.8-.306,3.816,1.941.454,5.3-7.118,6.088,0,0,3.6.434,2.484,2.241s-11.208,7.576-11.208,7.576Z" transform="translate(-451.323 -426.049)" fill="#ffc0bb" stroke="#1a1a1a" stroke-miterlimit="10" stroke-width="2"/>
      <path id="Path_999544" data-name="Path 999544" d="M623.962,555.1s-2.484-.636-10.117,2.393" transform="translate(-466.29 -438.955)" fill="none" stroke="#1a1a1a" stroke-linecap="round" stroke-linejoin="round" stroke-miterlimit="10" stroke-width="2"/>
      <path id="Path_999545" data-name="Path 999545" d="M649.745,479.336a2.067,2.067,0,1,1-2.067-2.067A2.067,2.067,0,0,1,649.745,479.336Z" transform="translate(-487.209 -388.373)" fill="#1a1a1a"/>
      <path id="Path_999546" data-name="Path 999546" d="M650.889,521.532a31.275,31.275,0,0,1,6.8-2.925" transform="translate(-490.691 -415.259)" fill="none" stroke="#1a1a1a" stroke-linecap="round" stroke-linejoin="round" stroke-miterlimit="10" stroke-width="2"/>
      <path id="Path_999547" data-name="Path 999547" d="M798.257,623.654H754.521c-2.794,0-5.332,2.4-6.5,6.159l-22.89,73.505h56.8l21.258-68.266C804.847,629.728,802.219,623.654,798.257,623.654Z" transform="translate(-539.815 -481.803)" fill="#7dbfff"/>
      <path id="Path_999548" data-name="Path 999548" d="M640.77,806.86H581.7V791.468a10.436,10.436,0,0,1,10.436-10.436h48.63V806.86Z" transform="translate(-445.199 -585.344)" fill="#7dbfff"/>
      <path id="Path_999549" data-name="Path 999549" d="M656.4,496.289c.325,1.009-1.062,2.359-3.1,3.014s-3.95.369-4.275-.64,1.062-2.359,3.1-3.014S656.076,495.28,656.4,496.289Z" transform="translate(-489.435 -400.09)" fill="#ffc0bb"/>
      <path id="Path_999550" data-name="Path 999550" d="M698.4,474.44s1.751.673,1.892,2.165c.018.2,0,.426-.2.441-1.084.087-2.048.684-1.321,2.2" transform="translate(-521.984 -386.527)" fill="none" stroke="#1a1a1a" stroke-linecap="round" stroke-miterlimit="10" stroke-width="2"/>
      <path id="Path_999551" data-name="Path 999551" d="M676.6,434.753c-2.111,8.439-11.51,11.849-19.269,13.215a59.84,59.84,0,0,1-10.93.9,10.972,10.972,0,0,0,1.374-3.417l0,0c.235-.922.431-1.936.594-2.993a92.609,92.609,0,0,0,.755-13.575l-.007-.025a3.284,3.284,0,0,0,.42.025c2.961,0,5.364-3.136,5.364-7s-2.4-7-5.364-7a5.092,5.092,0,0,0-4.321,2.854,37.27,37.27,0,0,1-16.45-6.7,42.766,42.766,0,0,1-3.484-2.712,2.5,2.5,0,0,1-.694-2.787c4.979-12.912,24.658-18.1,37.741-13.041,9.777,3.78,14.785,16.2,15.461,28.43A47.138,47.138,0,0,1,676.6,434.753Z" transform="translate(-473.339 -331.573)" fill="#1a1a1a"/>
      <path id="Path_999552" data-name="Path 999552" d="M718.868,493.113c-2.111,8.439-11.51,11.849-19.269,13.215a59.841,59.841,0,0,1-10.93.9,10.973,10.973,0,0,0,1.374-3.417l0,0c.409-.2,26.483-12.991,30.014-24.519A47.146,47.146,0,0,1,718.868,493.113Z" transform="translate(-515.629 -389.433)"/>
      <path id="Path_999553" data-name="Path 999553" d="M695.7,721.165a207.737,207.737,0,0,1-23.063-.061c-5.954-11.428,8.588-30,9.087-30.637l0,0S674.9,717.381,695.7,721.165Z" transform="translate(-504.108 -525.758)" fill="#19538d"/>
      <path id="Path_999554" data-name="Path 999554" d="M698.867,548.224c-10,18.615-34.343.318-40.651-4.887a22.133,22.133,0,0,0-8.734-4.475,16.972,16.972,0,0,0-12.252,1.3c.164-.217,5.456-7.1,17.354-8.538.537-.064,1.075-.132,1.616-.206,10.827-1.417,22.184-4.136,27.59-9.051a13.342,13.342,0,0,0,1.089-1.118c.014.007.032.011.046.018C686.022,521.733,707.917,531.386,698.867,548.224Z" transform="translate(-481.806 -416.564)" fill="#ffd470" stroke="#000" stroke-linecap="round" stroke-linejoin="round" stroke-miterlimit="10" stroke-width="2"/>
      <path id="Path_999555" data-name="Path 999555" d="M704.5,658.617c-.7,7.948-2.559,10.9-2.559,10.9a16.227,16.227,0,0,1,7.188-3.037" transform="translate(-524.328 -506.15)" fill="none" stroke="#1a1a1a" stroke-linecap="round" stroke-linejoin="round" stroke-miterlimit="10" stroke-width="2"/>
      <g id="Group_1181502" data-name="Group 1181502" transform="translate(0 97.472)">
        <path id="Path_999556" data-name="Path 999556" d="M262.972,570.8s-5.041-12.051,3.265-10.238c0,0,1.661-12.006,6.72-7.778,0,0,5.324-19.085,13.365-4.078,9.677,18.058-6.984,10.213-6.984,10.213s5.437,5.607-7.815,4.87c0,0,3.4.34,3.171,2.549S262.972,570.8,262.972,570.8Z" transform="translate(-234.048 -527.783)" fill="#ffd470"/>
        <path id="Path_999557" data-name="Path 999557" d="M211.383,538.491s-12.07-9.741-7.69-12.233c0,0-11.7-13.365-3.851-11.855,0,0-13.969-15.48-2.265-15.781s14.347,15.161,14.347,15.161,5.89-3.079,1.435,10.286C213.358,524.068,220.205,525.277,211.383,538.491Z" transform="translate(-188.945 -498.617)" fill="#ffd470"/>
        <path id="Path_999558" data-name="Path 999558" d="M200.832,612.638s-12.84,2.792-11.514-.99c0,0-11.963-.082-6.6-6.047s13.666,1.359,13.666,1.359S198.485,603.215,200.832,612.638Z" transform="translate(-181.333 -567.464)" fill="#ffd470"/>
        <path id="Path_999559" data-name="Path 999559" d="M258.107,594.329s.566-19.815,24.3-30.859" transform="translate(-231.844 -541.285)" fill="none" stroke="#19538d" stroke-linecap="round" stroke-miterlimit="10" stroke-width="2"/>
        <path id="Path_999560" data-name="Path 999560" d="M234.876,572.315s3.624-29.108-5.135-42.946" transform="translate(-213.181 -518.849)" fill="none" stroke="#19538d" stroke-linecap="round" stroke-linejoin="round" stroke-miterlimit="10" stroke-width="2"/>
        <path id="Path_999561" data-name="Path 999561" d="M218.8,623.451s-3.3-7.791-14.127-9.377" transform="translate(-196.689 -574.578)" fill="none" stroke="#19538d" stroke-linecap="round" stroke-linejoin="round" stroke-miterlimit="10" stroke-width="2"/>
        <path id="Path_999562" data-name="Path 999562" d="M242.106,653.674v12.685a10.388,10.388,0,0,1-14.807,9.4v0a10.378,10.378,0,0,1-5.96-9.4V653.674Z" transform="translate(-207.654 -600.631)" fill="#fff" stroke="#19538d" stroke-linecap="round" stroke-miterlimit="10" stroke-width="2"/>
        <path id="Path_999563" data-name="Path 999563" d="M253.569,681.373v3.209a10.388,10.388,0,0,1-14.807,9.4v0S250.053,691.294,253.569,681.373Z" transform="translate(-219.116 -618.855)" fill="#19538d"/>
      </g>
    </g>
  </g>
</svg>
