<svg xmlns="http://www.w3.org/2000/svg" xmlns:xlink="http://www.w3.org/1999/xlink" width="129" height="127" viewBox="0 0 129 127">
  <defs>
    <clipPath id="clip-path">
      <rect id="Rectángulo_454807" data-name="Rectángulo 454807" width="129" height="127" transform="translate(399.059 5904)" fill="#9ecfff"/>
    </clipPath>
  </defs>
  <g id="Grupo_1184261" data-name="Grupo 1184261" transform="translate(-399.059 -4700)">
    <g id="Grupo_1177492" data-name="Grupo 1177492" transform="translate(0 -1204)">
      <rect id="Rectángulo_454806" data-name="Rectángulo 454806" width="129" height="127" transform="translate(399.059 5904)" fill="#9ecfff"/>
      <path id="Rectángulo_454808" data-name="Rectángulo 454808" d="M0,0H79A12,12,0,0,1,91,12V91a0,0,0,0,1,0,0H12A12,12,0,0,1,0,79V0A0,0,0,0,1,0,0Z" transform="translate(418.059 5922)" fill="#fff"/>
      <path id="Trazado_1000715" data-name="Trazado 1000715" d="M65.872,59.559h-49.6a3.507,3.507,0,0,0-3.5,3.5V66.2l-.016,0a.949.949,0,0,0-.779.933V69.3A12.681,12.681,0,0,0,9.43,70.36L7.9,68.832a.949.949,0,0,0-1.211-.109A15.529,15.529,0,0,0,2.764,72.65a.949.949,0,0,0,.109,1.211L4.4,75.389a12.668,12.668,0,0,0-1.057,2.548H1.182a.949.949,0,0,0-.933.779,15.8,15.8,0,0,0,0,5.551.949.949,0,0,0,.933.779H3.345A12.628,12.628,0,0,0,4.4,87.6L2.873,89.127a.948.948,0,0,0-.107,1.212A15.566,15.566,0,0,0,6.691,94.26.948.948,0,0,0,7.9,94.152L9.43,92.623a12.68,12.68,0,0,0,2.548,1.057v2.163a.949.949,0,0,0,.779.933l.016,0V99.4a3.507,3.507,0,0,0,3.5,3.5H35.1v2.047h-4.1a3.93,3.93,0,0,0-3.925,3.925v2.973a.949.949,0,0,0,.949.949H54.131a.949.949,0,0,0,.949-.949v-2.973a3.93,3.93,0,0,0-3.925-3.925H47.048V102.9H65.872a3.507,3.507,0,0,0,3.5-3.5V63.062A3.507,3.507,0,0,0,65.872,59.559ZM9.783,90.63a.949.949,0,0,0-1.176.132L7.137,92.233A13.658,13.658,0,0,1,4.791,89.89l1.471-1.474a.949.949,0,0,0,.131-1.176A10.753,10.753,0,0,1,5,83.887a.949.949,0,0,0-.925-.738H2a14.068,14.068,0,0,1,0-3.315h2.08A.949.949,0,0,0,5,79.1a10.805,10.805,0,0,1,1.392-3.355.949.949,0,0,0-.133-1.176L4.791,73.1A13.611,13.611,0,0,1,7.137,70.75l1.471,1.471a.949.949,0,0,0,1.176.132,10.811,10.811,0,0,1,3.355-1.392.949.949,0,0,0,.738-.925V67.956a13.729,13.729,0,0,1,3.315,0v2.081a.948.948,0,0,0,.738.925,10.82,10.82,0,0,1,3.359,1.392.949.949,0,0,0,1.176-.132l1.47-1.47A13.661,13.661,0,0,1,26.275,73.1L24.8,74.566a.949.949,0,0,0-.131,1.178,10.719,10.719,0,0,1,1.39,3.353.949.949,0,0,0,.925.738h2.081a13.664,13.664,0,0,1,0,3.315H26.988a.949.949,0,0,0-.926.74,10.571,10.571,0,0,1-1.389,3.349.949.949,0,0,0,.13,1.178l1.471,1.474a13.7,13.7,0,0,1-2.342,2.342l-1.47-1.47a.949.949,0,0,0-1.176-.132,10.817,10.817,0,0,1-3.359,1.392.949.949,0,0,0-.738.925v2.081a13.729,13.729,0,0,1-3.315,0V92.946a.949.949,0,0,0-.738-.925A10.8,10.8,0,0,1,9.783,90.63ZM18.3,96.778l.012,0a.949.949,0,0,0,.779-.933V93.68a12.694,12.694,0,0,0,2.552-1.057l1.528,1.529a.949.949,0,0,0,1.212.108A15.614,15.614,0,0,0,28.3,90.339a.949.949,0,0,0-.107-1.212L26.666,87.6a12.452,12.452,0,0,0,1.058-2.55h2.161a.949.949,0,0,0,.933-.779,15.559,15.559,0,0,0,0-5.551.949.949,0,0,0-.933-.779H27.722a12.6,12.6,0,0,0-1.056-2.549l1.527-1.527a.949.949,0,0,0,.109-1.211,15.575,15.575,0,0,0-3.921-3.926.948.948,0,0,0-1.212.108L21.64,70.36A12.7,12.7,0,0,0,19.088,69.3V67.141a.949.949,0,0,0-.779-.933l-.012,0V65.082H63.852V97.375H18.3Zm32.858,10.064a2.03,2.03,0,0,1,2.028,2.028v2.024H28.966V108.87a2.03,2.03,0,0,1,2.028-2.028h20.16Zm-6-1.9H36.993V102.9h8.158ZM67.477,99.4A1.607,1.607,0,0,1,65.872,101h-49.6A1.607,1.607,0,0,1,14.671,99.4V97c.288.016.576.025.864.025s.576-.009.864-.025v1.323a.949.949,0,0,0,.949.949H64.8a.949.949,0,0,0,.949-.949V64.133a.949.949,0,0,0-.949-.949H17.348a.949.949,0,0,0-.949.949v1.85a15.75,15.75,0,0,0-1.728,0V63.062a1.607,1.607,0,0,1,1.605-1.605h49.6a1.607,1.607,0,0,1,1.605,1.605V99.4Zm-42.936-17.9A9.008,9.008,0,1,0,15.535,90.5,9.019,9.019,0,0,0,24.542,81.494Zm-16.12,0A7.111,7.111,0,1,1,15.535,88.6,7.121,7.121,0,0,1,8.422,81.494Zm5.067,2.257-1.34,1.343-2.93-2.924a.949.949,0,0,1,0-1.342L12.147,77.9l1.342,1.342L11.231,81.5Zm4.092-4.519,1.342-1.342,2.925,2.925a.949.949,0,0,1,0,1.341l-2.925,2.93-1.343-1.341,2.255-2.259Zm.049-1.9L15.269,86.15l-1.833-.49L15.8,76.837ZM48.742,67.264H37.919a.949.949,0,0,0-.949.949V79.039a.949.949,0,0,0,.949.949H48.742a.949.949,0,0,0,.949-.949V68.212A.949.949,0,0,0,48.742,67.264Zm-.949,10.827H38.867v-8.93h8.926v8.93Zm.949,4.382H37.919a.949.949,0,0,0-.949.949V94.245a.949.949,0,0,0,.949.949H48.742a.949.949,0,0,0,.949-.949V83.422A.949.949,0,0,0,48.742,82.473ZM47.794,93.3H38.867V84.37h8.926V93.3ZM41.357,76.364l-1.975-2.6,1.511-1.147L42.17,74.3l3.7-4.173,1.42,1.259-4.466,5.038a.949.949,0,0,1-.71.319h-.036a.948.948,0,0,1-.72-.374Zm-1.2,14.306,1.836-1.836L40.153,87l1.342-1.342,1.836,1.836,1.836-1.836L46.508,87l-1.836,1.836,1.836,1.836-1.342,1.342-1.836-1.836-1.836,1.836ZM51.776,71.481H62.208v1.9H51.776Zm0-4.217H62.208v1.9H51.776Zm0,19.426H62.208v1.9H51.776Zm0-4.217H62.208v1.9H51.776Z" transform="translate(428.87 5883.324)" fill="#19538d"/>
    </g>
    <path id="Trazado_998457" data-name="Trazado 998457" d="M21.193,13.724H3.483l2.43-5.5h17.71Z" transform="translate(406.088 4714.021)" fill="#fff"/>
    <path id="Trazado_998459" data-name="Trazado 998459" d="M21.193,13.724H3.483l2.43-5.5h17.71Z" transform="translate(497.088 4790.021)" fill="#fff"/>
    <path id="Trazado_998458" data-name="Trazado 998458" d="M21.193,13.724H3.483l2.43-5.5h17.71Z" transform="translate(401.088 4719.524)" fill="#9ecfff"/>
    <path id="Trazado_998461" data-name="Trazado 998461" d="M18.607,11.366H3.483L4.872,8.221H20Z" transform="translate(494.518 4795.524)" fill="#9ecfff"/>
    <path id="Trazado_998462" data-name="Trazado 998462" d="M18.607,11.366H3.483L4.872,8.221H20Z" transform="translate(497.088 4734.779)" fill="#9ecfff"/>
    <path id="Trazado_998463" data-name="Trazado 998463" d="M18.607,11.366H3.483L4.872,8.221H20Z" transform="translate(402.902 4780.779)" fill="#9ecfff"/>
  </g>
</svg>
