<svg xmlns="http://www.w3.org/2000/svg" xmlns:xlink="http://www.w3.org/1999/xlink" width="129" height="127" viewBox="0 0 129 127">
  <defs>
    <clipPath id="clip-path">
      <rect id="Rectángulo_454807" data-name="Rectángulo 454807" width="129" height="127" transform="translate(399.059 5904)" fill="#9ecfff"/>
    </clipPath>
  </defs>
  <g id="Grupo_1184262" data-name="Grupo 1184262" transform="translate(-399.059 -4700)">
    <g id="Grupo_1177492" data-name="Grupo 1177492" transform="translate(0 -1204)">
      <rect id="Rectángulo_454806" data-name="Rectángulo 454806" width="129" height="127" transform="translate(399.059 5904)" fill="#9ecfff"/>
      <path id="Rectángulo_454808" data-name="Rectángulo 454808" d="M0,0H79A12,12,0,0,1,91,12V91a0,0,0,0,1,0,0H12A12,12,0,0,1,0,79V0A0,0,0,0,1,0,0Z" transform="translate(418.059 5922)" fill="#fff"/>
      <g id="Grupo_1182381" data-name="Grupo 1182381" transform="translate(431.559 5935.497)">
        <path id="Trazado_1000716" data-name="Trazado 1000716" d="M50,19a4.39,4.39,0,0,1-.07.82l2,.36a6.38,6.38,0,0,0,0-2.36l-2,.36A4.39,4.39,0,0,1,50,19Z" fill="#19538d"/>
        <path id="Trazado_1000717" data-name="Trazado 1000717" d="M2.45,19.83l9,6A1,1,0,0,0,13,25V23H28a1,1,0,0,0,0,.35,18,18,0,0,0,1.9,4.58,1.009,1.009,0,0,0,1.48.28,3.1,3.1,0,0,1,4.13.26,3.06,3.06,0,0,1,.9,2.53h-8a.9.9,0,0,0,0-.4,1,1,0,0,0-.47-.67A18,18,0,0,0,23.35,28a1,1,0,0,0-1.24.85,3.13,3.13,0,0,1-6.22,0A1,1,0,0,0,14.65,28a18,18,0,0,0-4.58,1.9,1.009,1.009,0,0,0-.28,1.48,3.12,3.12,0,0,1-4.38,4.38,1.009,1.009,0,0,0-1.48.28A18,18,0,0,0,2,40.65a1,1,0,0,0,.85,1.24,3.13,3.13,0,0,1,0,6.22A1,1,0,0,0,2,49.35a18,18,0,0,0,1.9,4.58,1.009,1.009,0,0,0,1.48.28,3.12,3.12,0,0,1,4.38,4.38,1.009,1.009,0,0,0,.28,1.48A18,18,0,0,0,14.65,62a1,1,0,0,0,1.24-.85,3.13,3.13,0,0,1,6.22,0,.991.991,0,0,0,.99.88,1.07,1.07,0,0,0,.25,0,18,18,0,0,0,4.58-1.9,1.009,1.009,0,0,0,.28-1.48,2.74,2.74,0,0,1-.36-.59H40V56H27.62a3.15,3.15,0,0,1,.85-1.54,3.09,3.09,0,0,1,4.12-.25,1.009,1.009,0,0,0,1.48-.28A18,18,0,0,0,36,49.35,1,1,0,0,0,36,49H53a1,1,0,0,0,1-1V42a1,1,0,0,0-1-1H36a1,1,0,0,0,0-.35c-.15-.56-.33-1.11-.53-1.65H44a5,5,0,0,0,4.63-3.14,1,1,0,0,0,.72.11,18,18,0,0,0,4.58-1.9,1.009,1.009,0,0,0,.28-1.48,3.12,3.12,0,0,1,4.38-4.38,1.009,1.009,0,0,0,1.48-.28A18,18,0,0,0,62,23.35a1,1,0,0,0-.85-1.24,3.13,3.13,0,0,1,0-6.22A1,1,0,0,0,62,14.65a18,18,0,0,0-1.9-4.58,1.009,1.009,0,0,0-1.48-.28,3.12,3.12,0,0,1-4.38-4.38,1.009,1.009,0,0,0-.28-1.48A18,18,0,0,0,49.35,2a1,1,0,0,0-1.24.85,3.13,3.13,0,0,1-6.22,0A1,1,0,0,0,40.65,2a18,18,0,0,0-4.58,1.9,1.009,1.009,0,0,0-.28,1.48,2.74,2.74,0,0,1,.36.59H24V8H36.38a3.15,3.15,0,0,1-.85,1.54,3.09,3.09,0,0,1-4.12.25,1.06,1.06,0,0,0-.81-.19,1,1,0,0,0-.67.47A18,18,0,0,0,28,14.65,1,1,0,0,0,28,15H13V13a.988.988,0,0,0-1.53-.83l-9,6a1,1,0,0,0,0,1.66ZM52,47H20a3,3,0,0,1-3-3V40.42A4.94,4.94,0,0,1,19,40a4.86,4.86,0,0,1,2,.43V42a1,1,0,0,0,1,1H52ZM20,49h2a5,5,0,0,1-7-7v2A5,5,0,0,0,20,49Zm4.72-8a7,7,0,1,0,0,8h7.62a5.25,5.25,0,0,0,1.41.82,15.72,15.72,0,0,1-.92,2.2A5.14,5.14,0,0,0,26,58.83a15.72,15.72,0,0,1-2.2.92,5.13,5.13,0,0,0-9.64,0,15.72,15.72,0,0,1-2.2-.92A5.14,5.14,0,0,0,5.17,52a15.72,15.72,0,0,1-.92-2.2,5.13,5.13,0,0,0,0-9.64A15.72,15.72,0,0,1,5.17,38,5.14,5.14,0,0,0,12,31.17a14.56,14.56,0,0,1,2.2-.91,5.14,5.14,0,0,0,9.64,0,14.56,14.56,0,0,1,2.2.91A5.14,5.14,0,0,0,32.83,38a15.72,15.72,0,0,1,.92,2.2,5.25,5.25,0,0,0-1.41.82ZM44,37H34.57c-.16-.31-.32-.62-.5-.93a1.009,1.009,0,0,0-1.48-.28,3.13,3.13,0,0,1-5-2.79h8.05a.9.9,0,0,0,0,.4,1,1,0,0,0,.47.67A18,18,0,0,0,40.65,36a1.07,1.07,0,0,0,.25,0,.991.991,0,0,0,.99-.88,3.12,3.12,0,0,1,5.11-2V34a3,3,0,0,1-3,3ZM30.25,14.18a15.72,15.72,0,0,1,.92-2.2A5.087,5.087,0,0,0,37.94,5.2a14.56,14.56,0,0,1,2.2-.91,5.14,5.14,0,0,0,9.64,0,14.56,14.56,0,0,1,2.2.91A5.14,5.14,0,0,0,58.83,12a15.72,15.72,0,0,1,.92,2.2,5.13,5.13,0,0,0,0,9.64,15.72,15.72,0,0,1-.92,2.2A5.14,5.14,0,0,0,52,32.83a15.721,15.721,0,0,1-2.2.92A5.2,5.2,0,0,0,48.72,32a5.13,5.13,0,0,0-8.54,1.77,15.72,15.72,0,0,1-2.2-.92,3.89,3.89,0,0,0,.21-.51,5.14,5.14,0,0,0-7-6.3,15.72,15.72,0,0,1-.92-2.2A5.25,5.25,0,0,0,31.66,23h7.62a6.77,6.77,0,0,0,2.21,2.05,7,7,0,0,0,9.57-2.55l-1.74-1A3.74,3.74,0,0,1,49,22V20a5,5,0,0,0-5-5H42a5,5,0,0,1,7.31,1.5l1.74-1A7,7,0,0,0,39.28,15H31.66a5.25,5.25,0,0,0-1.41-.82ZM11,14.87V16a1,1,0,0,0,1,1H44a3,3,0,0,1,3,3v3.57a5,5,0,0,1-4,0V22a1,1,0,0,0-1-1H12a1,1,0,0,0-1,1v1.13L4.8,19Z" fill="#19538d"/>
        <path id="Trazado_1000718" data-name="Trazado 1000718" d="M61,41H57a1,1,0,0,0-1,1v6a1,1,0,0,0,1,1h4a1,1,0,0,0,1-1V42A1,1,0,0,0,61,41Zm-1,6H58V43h2Z" fill="#19538d"/>
        <path id="Trazado_1000719" data-name="Trazado 1000719" d="M60,53h2v2H60Z" fill="#19538d"/>
        <path id="Trazado_1000720" data-name="Trazado 1000720" d="M56,53h2v2H56Z" fill="#19538d"/>
        <path id="Trazado_1000721" data-name="Trazado 1000721" d="M52,53h2v2H52Z" fill="#19538d"/>
        <path id="Trazado_1000722" data-name="Trazado 1000722" d="M48,53h2v2H48Z" fill="#19538d"/>
        <path id="Trazado_1000723" data-name="Trazado 1000723" d="M46,56h2v2H46Z" fill="#19538d"/>
        <path id="Trazado_1000724" data-name="Trazado 1000724" d="M42,56h2v2H42Z" fill="#19538d"/>
        <path id="Trazado_1000725" data-name="Trazado 1000725" d="M2,9H4v2H2Z" fill="#19538d"/>
        <path id="Trazado_1000726" data-name="Trazado 1000726" d="M6,9H8v2H6Z" fill="#19538d"/>
        <path id="Trazado_1000727" data-name="Trazado 1000727" d="M10,9h2v2H10Z" fill="#19538d"/>
        <path id="Trazado_1000728" data-name="Trazado 1000728" d="M14,9h2v2H14Z" fill="#19538d"/>
        <path id="Trazado_1000729" data-name="Trazado 1000729" d="M16,6h2V8H16Z" fill="#19538d"/>
        <path id="Trazado_1000730" data-name="Trazado 1000730" d="M20,6h2V8H20Z" fill="#19538d"/>
      </g>
    </g>
    <path id="Trazado_998457" data-name="Trazado 998457" d="M21.193,13.724H3.483l2.43-5.5h17.71Z" transform="translate(406.088 4714.021)" fill="#fff"/>
    <path id="Trazado_998459" data-name="Trazado 998459" d="M21.193,13.724H3.483l2.43-5.5h17.71Z" transform="translate(497.088 4790.021)" fill="#fff"/>
    <path id="Trazado_998458" data-name="Trazado 998458" d="M21.193,13.724H3.483l2.43-5.5h17.71Z" transform="translate(401.088 4719.524)" fill="#9ecfff"/>
    <path id="Trazado_998461" data-name="Trazado 998461" d="M18.607,11.366H3.483L4.872,8.221H20Z" transform="translate(494.518 4795.524)" fill="#9ecfff"/>
    <path id="Trazado_998462" data-name="Trazado 998462" d="M18.607,11.366H3.483L4.872,8.221H20Z" transform="translate(497.088 4734.779)" fill="#9ecfff"/>
    <path id="Trazado_998463" data-name="Trazado 998463" d="M18.607,11.366H3.483L4.872,8.221H20Z" transform="translate(402.902 4780.779)" fill="#9ecfff"/>
  </g>
</svg>
