<svg xmlns="http://www.w3.org/2000/svg" xmlns:xlink="http://www.w3.org/1999/xlink" width="129" height="127" viewBox="0 0 129 127">
  <defs>
    <clipPath id="clip-path">
      <rect id="Rectángulo_454807" data-name="Rectángulo 454807" width="129" height="127" transform="translate(399.059 5904)" fill="#9ecfff"/>
    </clipPath>
  </defs>
  <g id="Grupo_1184263" data-name="Grupo 1184263" transform="translate(-399.059 -4700)">
    <g id="Grupo_1177492" data-name="Grupo 1177492" transform="translate(0 -1204)">
      <rect id="Rectángulo_454806" data-name="Rectángulo 454806" width="129" height="127" transform="translate(399.059 5904)" fill="#9ecfff"/>
      <path id="Rectángulo_454808" data-name="Rectángulo 454808" d="M0,0H79A12,12,0,0,1,91,12V91a0,0,0,0,1,0,0H12A12,12,0,0,1,0,79V0A0,0,0,0,1,0,0Z" transform="translate(418.059 5922)" fill="#fff"/>
      <g id="Grupo_1182382" data-name="Grupo 1182382" transform="translate(431.559 5935.529)">
        <path id="Trazado_1000731" data-name="Trazado 1000731" d="M57,35H46V33a1,1,0,0,0-1-1H43.61a11.77,11.77,0,0,0-1.27-3.09l1-1a1,1,0,0,0,0-1.42l-2.82-2.82a1,1,0,0,0-1.42,0l-1,1c-.35-.2-.72-.37-1.09-.54a3.18,3.18,0,0,0,1-2.3V14.18A3.19,3.19,0,0,0,34.82,11H29.18A3.19,3.19,0,0,0,26,14.18v7.64a3.18,3.18,0,0,0,1,2.3c-.37.17-.74.34-1.09.54l-1-1a1,1,0,0,0-1.42,0l-2.82,2.82a1,1,0,0,0,0,1.42l1,1A11.77,11.77,0,0,0,20.39,32H19a1,1,0,0,0-1,1v2H7a1,1,0,0,0-1,1,25.923,25.923,0,0,0,7.414,18.154l0,.056h.05a26,26,0,0,0,37,0h0v-.06A25.92,25.92,0,0,0,58,36,1,1,0,0,0,57,35ZM28,14.18A1.18,1.18,0,0,1,29.18,13h5.64A1.18,1.18,0,0,1,36,14.18v7.64A1.18,1.18,0,0,1,35,23V22a1,1,0,0,0-1-1H30a1,1,0,0,0-1,1v1a1.18,1.18,0,0,1-1-1.15ZM20,34h1.19a1,1,0,0,0,1-.82,9.86,9.86,0,0,1,1.59-3.84,1,1,0,0,0-.11-1.28l-.84-.84,1.41-1.41.84.84a1,1,0,0,0,1.28.11,9.86,9.86,0,0,1,3.84-1.59,1,1,0,0,0,.82-1V23h2v1.19a1,1,0,0,0,.82,1,9.86,9.86,0,0,1,3.84,1.59,1,1,0,0,0,1.28-.11l.84-.84,1.41,1.41-.84.84a1,1,0,0,0-.11,1.28,9.86,9.86,0,0,1,1.59,3.84,1,1,0,0,0,1,.82H44v1H40a8,8,0,0,0-4.58-7.22h-.05a7.95,7.95,0,0,0-6.74,0h-.05A8,8,0,0,0,24,35H20ZM41.58,46.84A25.36,25.36,0,0,0,33,45V37h9.51c0,.35.09.68.11,1A23.81,23.81,0,0,1,41.58,46.84ZM34,29.35v2a.61.61,0,0,1-.61.61H30.61a.61.61,0,0,1-.61-.61v-2A5.89,5.89,0,0,1,34,29.35ZM8,37H19.46c0,.3-.06.6-.08.91a25.82,25.82,0,0,0,1.21,9.76,25.69,25.69,0,0,0-6.38,4.41A23.88,23.88,0,0,1,8,37Zm7.59,16.51a23,23,0,0,1,5.68-3.95c.1.24.19.48.3.73a25.83,25.83,0,0,0,5.34,7.78c.61.61,1.25,1.18,1.91,1.72a24,24,0,0,1-13.21-6.28ZM31,58.93a22.8,22.8,0,0,1-2.65-2.28,23.73,23.73,0,0,1-4.94-7.18c-.11-.25-.21-.5-.31-.75A23.37,23.37,0,0,1,31,47ZM31,45a25.31,25.31,0,0,0-8.58,1.81,23.84,23.84,0,0,1-1-8.8,7.459,7.459,0,0,1,.11-1H31ZM26,35a6,6,0,0,1,2-4.46v.85A2.61,2.61,0,0,0,30.61,34h2.78A2.61,2.61,0,0,0,36,31.39v-.85A6,6,0,0,1,38,35Zm7,12a23.42,23.42,0,0,1,7.9,1.69c-.11.25-.2.51-.31.75a23.73,23.73,0,0,1-4.94,7.18A24,24,0,0,1,33,59Zm2.16,12.76c.66-.54,1.3-1.11,1.91-1.72a25.83,25.83,0,0,0,5.34-7.78c.11-.24.2-.49.3-.74a23.74,23.74,0,0,1,5.68,4,24,24,0,0,1-13.23,6.27Zm14.63-7.71a25.69,25.69,0,0,0-6.38-4.41,25.79,25.79,0,0,0,1.21-9.75,3.543,3.543,0,0,0-.08-.92H56a23.88,23.88,0,0,1-6.21,15.11Z" fill="#19538d"/>
        <path id="Trazado_1000732" data-name="Trazado 1000732" d="M28,6a4,4,0,1,0,4-4,4,4,0,0,0-4,4Zm4-2a2,2,0,1,1-2,2A2,2,0,0,1,32,4Z" fill="#19538d"/>
        <path id="Trazado_1000733" data-name="Trazado 1000733" d="M16,6a4,4,0,1,0-4,4A4,4,0,0,0,16,6ZM10,6a2,2,0,1,1,2,2A2,2,0,0,1,10,6Z" fill="#19538d"/>
        <path id="Trazado_1000734" data-name="Trazado 1000734" d="M10.61,34h2.78A2.61,2.61,0,0,0,16,31.39V24.77a3.2,3.2,0,0,0,2-2.95V14.18A3.19,3.19,0,0,0,14.82,11H9.18A3.19,3.19,0,0,0,6,14.18v7.64a3.2,3.2,0,0,0,2,2.95v6.62A2.61,2.61,0,0,0,10.61,34ZM8,14.18A1.18,1.18,0,0,1,9.18,13h5.64A1.18,1.18,0,0,1,16,14.18v7.64A1.17,1.17,0,0,1,14.92,23,1,1,0,0,0,14,24v7.4a.61.61,0,0,1-.61.61H10.61A.61.61,0,0,1,10,31.4V24a1,1,0,0,0-.92-1A1.17,1.17,0,0,1,8,21.82Z" fill="#19538d"/>
        <path id="Trazado_1000735" data-name="Trazado 1000735" d="M56,6a4,4,0,1,0-4,4A4,4,0,0,0,56,6ZM50,6a2,2,0,1,1,2,2A2,2,0,0,1,50,6Z" fill="#19538d"/>
        <path id="Trazado_1000736" data-name="Trazado 1000736" d="M54.82,11H49.18A3.19,3.19,0,0,0,46,14.18v7.64a3.2,3.2,0,0,0,2,2.95v6.62A2.61,2.61,0,0,0,50.61,34h2.78A2.61,2.61,0,0,0,56,31.39V24.77a3.2,3.2,0,0,0,2-2.95V14.18A3.19,3.19,0,0,0,54.82,11ZM56,21.82A1.17,1.17,0,0,1,54.92,23,1,1,0,0,0,54,24v7.4a.61.61,0,0,1-.61.61H50.61A.61.61,0,0,1,50,31.4V24a1,1,0,0,0-.92-1A1.17,1.17,0,0,1,48,21.82V14.18A1.18,1.18,0,0,1,49.18,13h5.64A1.18,1.18,0,0,1,56,14.18Z" fill="#19538d"/>
      </g>
    </g>
    <path id="Trazado_998457" data-name="Trazado 998457" d="M21.193,13.724H3.483l2.43-5.5h17.71Z" transform="translate(406.088 4714.021)" fill="#fff"/>
    <path id="Trazado_998459" data-name="Trazado 998459" d="M21.193,13.724H3.483l2.43-5.5h17.71Z" transform="translate(497.088 4790.021)" fill="#fff"/>
    <path id="Trazado_998458" data-name="Trazado 998458" d="M21.193,13.724H3.483l2.43-5.5h17.71Z" transform="translate(401.088 4719.524)" fill="#9ecfff"/>
    <path id="Trazado_998461" data-name="Trazado 998461" d="M18.607,11.366H3.483L4.872,8.221H20Z" transform="translate(494.518 4795.524)" fill="#9ecfff"/>
    <path id="Trazado_998462" data-name="Trazado 998462" d="M18.607,11.366H3.483L4.872,8.221H20Z" transform="translate(497.088 4734.779)" fill="#9ecfff"/>
    <path id="Trazado_998463" data-name="Trazado 998463" d="M18.607,11.366H3.483L4.872,8.221H20Z" transform="translate(402.902 4780.779)" fill="#9ecfff"/>
  </g>
</svg>
