<svg xmlns="http://www.w3.org/2000/svg" xmlns:xlink="http://www.w3.org/1999/xlink" width="129" height="127" viewBox="0 0 129 127">
  <defs>
    <clipPath id="clip-path">
      <rect id="Rectángulo_454807" data-name="Rectángulo 454807" width="129" height="127" transform="translate(399.059 5904)" fill="#9ecfff"/>
    </clipPath>
  </defs>
  <g id="Grupo_1184264" data-name="Grupo 1184264" transform="translate(-399.059 -4700)">
    <g id="Grupo_1177492" data-name="Grupo 1177492" transform="translate(0 -1204)">
      <rect id="Rectángulo_454806" data-name="Rectángulo 454806" width="129" height="127" transform="translate(399.059 5904)" fill="#9ecfff"/>
      <path id="Rectángulo_454808" data-name="Rectángulo 454808" d="M0,0H79A12,12,0,0,1,91,12V91a0,0,0,0,1,0,0H12A12,12,0,0,1,0,79V0A0,0,0,0,1,0,0Z" transform="translate(418.059 5922)" fill="#fff"/>
      <g id="Grupo_1182384" data-name="Grupo 1182384" transform="translate(432.651 5909.662)">
        <path id="Trazado_1000737" data-name="Trazado 1000737" d="M58.941,30.629H30.168a.906.906,0,1,0,0,1.811H58.941A1.065,1.065,0,0,1,60,33.5v4.809H1.811V33.5A1.065,1.065,0,0,1,2.875,32.44H25.942a.906.906,0,1,0,0-1.811H2.875A2.878,2.878,0,0,0,0,33.5v48.67a2.878,2.878,0,0,0,2.875,2.875H20.3a.906.906,0,0,0,0-1.811H2.875a1.065,1.065,0,0,1-1.064-1.064V62.631H5.538a.906.906,0,1,0,0-1.811H1.811v-20.7H30v20.7H9.764a.906.906,0,0,0,0,1.811H30V83.238H24.527a.906.906,0,0,0,0,1.811H58.941a2.878,2.878,0,0,0,2.875-2.875V33.5A2.878,2.878,0,0,0,58.941,30.629ZM60,82.174a1.065,1.065,0,0,1-1.064,1.064H31.813V62.631H60ZM60,60.82H31.813v-20.7H60Z" transform="translate(0 0)" fill="#19538d"/>
        <path id="Trazado_1000738" data-name="Trazado 1000738" d="M68.807,140.969a8.6,8.6,0,1,0-8.6-8.6A8.607,8.607,0,0,0,68.807,140.969Zm0-1.811a6.778,6.778,0,0,1-5.368-2.642l2.388-1.379a4.06,4.06,0,0,0,5.959,0l2.388,1.379A6.777,6.777,0,0,1,68.807,139.158Zm.906-13.51a6.782,6.782,0,0,1,5.371,9.3l-2.389-1.379a4.068,4.068,0,0,0-2.982-5.164Zm1.352,6.724a2.257,2.257,0,1,1-2.257-2.257A2.26,2.26,0,0,1,71.064,132.371Zm-9.043,0a6.8,6.8,0,0,1,5.881-6.724v2.759a4.068,4.068,0,0,0-2.982,5.164l-2.389,1.379A6.746,6.746,0,0,1,62.021,132.371Z" transform="translate(-52.941 -81.899)" fill="#19538d"/>
        <path id="Trazado_1000739" data-name="Trazado 1000739" d="M299.469,140.965h18.413a.905.905,0,0,0,.906-.906V134.48a.906.906,0,0,0-1.811,0v4.674h-2.793V125.581h2.793v4.674a.906.906,0,0,0,1.811,0v-5.579a.905.905,0,0,0-.906-.906h-4.6a.905.905,0,0,0-.906.906v2.495h-3.7a.905.905,0,0,0-.906.905v2.494h-3.7a.905.905,0,0,0-.906.906v2.393h-3.7a.905.905,0,0,0-.905.906v5.285a.905.905,0,0,0,.905.906Zm10.112-11.984h2.792v10.173h-2.792Zm-4.6,3.4h2.792v6.773h-2.792Zm-4.6,3.3h2.792v3.474h-2.792Z" transform="translate(-262.517 -81.896)" fill="#19538d"/>
        <path id="Trazado_1000740" data-name="Trazado 1000740" d="M62.768,344.165a2.763,2.763,0,0,0-4.285-2.309l-1.8-1.8a2.765,2.765,0,1,0-4.975,0l-1.619,1.619a2.761,2.761,0,0,0-2.414,0l-1.619-1.619a2.766,2.766,0,1,0-1.281,1.281l1.619,1.619a2.765,2.765,0,1,0,4.975,0l1.619-1.619a2.761,2.761,0,0,0,2.414,0l1.97,1.97a2.765,2.765,0,1,0,5.394.856Zm-19.2-4.359a.954.954,0,1,1,.954-.954A.955.955,0,0,1,43.571,339.805Zm5.313,5.313a.954.954,0,1,1,.954-.954A.955.955,0,0,1,48.884,345.119Zm5.313-5.313a.954.954,0,1,1,.954-.954A.955.955,0,0,1,54.2,339.805Zm4.851,4.359a.954.954,0,1,1,.954.954A.955.955,0,0,1,59.049,344.165Z" transform="translate(-35.879 -268.578)" fill="#19538d"/>
        <path id="Trazado_1000741" data-name="Trazado 1000741" d="M298.517,331.951h14.755a2.832,2.832,0,1,0,0-5.664H298.517a2.832,2.832,0,0,0,0,5.664Zm4-3.853h10.76a1.021,1.021,0,1,1,0,2.042h-10.76Zm-4,0H300.7v2.042h-2.185a1.021,1.021,0,0,1,0-2.042Z" transform="translate(-259.986 -259.962)" fill="#19538d"/>
        <path id="Trazado_1000742" data-name="Trazado 1000742" d="M298.517,396.547h14.755a2.832,2.832,0,1,0,0-5.664H298.517a2.832,2.832,0,0,0,0,5.664Zm12.691-3.853h2.064a1.021,1.021,0,1,1,0,2.042h-2.064Zm-12.691,0H309.4v2.042h-10.88a1.021,1.021,0,0,1,0-2.042Z" transform="translate(-259.986 -316.759)" fill="#19538d"/>
        <g id="Grupo_1182383" data-name="Grupo 1182383" transform="translate(4.174 34.472)">
          <circle id="Elipse_13734" data-name="Elipse 13734" cx="0.906" cy="0.906" r="0.906" transform="translate(0 0)" fill="#19538d"/>
          <circle id="Elipse_13735" data-name="Elipse 13735" cx="0.906" cy="0.906" r="0.906" transform="translate(4.119 0)" fill="#19538d"/>
          <circle id="Elipse_13736" data-name="Elipse 13736" cx="0.906" cy="0.906" r="0.906" transform="translate(8.239 0)" fill="#19538d"/>
        </g>
      </g>
    </g>
    <path id="Trazado_998457" data-name="Trazado 998457" d="M21.193,13.724H3.483l2.43-5.5h17.71Z" transform="translate(406.088 4714.021)" fill="#fff"/>
    <path id="Trazado_998459" data-name="Trazado 998459" d="M21.193,13.724H3.483l2.43-5.5h17.71Z" transform="translate(497.088 4790.021)" fill="#fff"/>
    <path id="Trazado_998458" data-name="Trazado 998458" d="M21.193,13.724H3.483l2.43-5.5h17.71Z" transform="translate(401.088 4719.524)" fill="#9ecfff"/>
    <path id="Trazado_998461" data-name="Trazado 998461" d="M18.607,11.366H3.483L4.872,8.221H20Z" transform="translate(494.518 4795.524)" fill="#9ecfff"/>
    <path id="Trazado_998462" data-name="Trazado 998462" d="M18.607,11.366H3.483L4.872,8.221H20Z" transform="translate(497.088 4734.779)" fill="#9ecfff"/>
    <path id="Trazado_998463" data-name="Trazado 998463" d="M18.607,11.366H3.483L4.872,8.221H20Z" transform="translate(402.902 4780.779)" fill="#9ecfff"/>
  </g>
</svg>
