<svg xmlns="http://www.w3.org/2000/svg" xmlns:xlink="http://www.w3.org/1999/xlink" width="96" height="96" viewBox="0 0 96 96">
  <defs>
    <clipPath id="clip-path">
      <rect id="Rectángulo_455533" data-name="Rectángulo 455533" width="95.999" height="92.163" fill="#19538d"/>
    </clipPath>
  </defs>
  <g id="Grupo_1179072" data-name="Grupo 1179072" transform="translate(-383.745 -8399)">
    <circle id="Elipse_13674" data-name="Elipse 13674" cx="41.5" cy="41.5" r="41.5" transform="translate(389.746 8406)" fill="#19538d"/>
    <g id="Grupo_1179062" data-name="Grupo 1179062" transform="translate(383.745 8399)">
      <rect id="Rectángulo_455531" data-name="Rectángulo 455531" width="96" height="96" transform="translate(0 0)" fill="none"/>
      <g id="Grupo_1179061" data-name="Grupo 1179061" transform="translate(0 2.203)">
        <path id="Trazado_998445" data-name="Trazado 998445" d="M114.467,95.838H96.727l2.4-4.484h17.739Z" transform="translate(-23.693 -22.7)" fill="#19538d"/>
        <path id="Trazado_998446" data-name="Trazado 998446" d="M1.458,86.893,0,89.861H19.558l1.458-2.968Z" transform="translate(0 -21.618)" fill="#19538d"/>
        <path id="Trazado_998447" data-name="Trazado 998447" d="M117.539,31.293H98.809l1.469-3.326h18.73Z" transform="translate(-24.246 -6.956)" fill="#19538d"/>
        <path id="Trazado_998448" data-name="Trazado 998448" d="M28.088,11.547H3.483L4.952,8.221H29.557Z" transform="translate(-0.925 -2.184)" fill="#19538d"/>
        <g id="Grupo_1179060" data-name="Grupo 1179060" transform="translate(0)">
          <g id="Grupo_1179059" data-name="Grupo 1179059" clip-path="url(#clip-path)">
            <path id="Trazado_998449" data-name="Trazado 998449" d="M48.653,99.141a40.772,40.772,0,0,1-39.711-49.9H3.518A46.036,46.036,0,0,0,84.512,87.248h-7.1A40.6,40.6,0,0,1,48.653,99.141" transform="translate(-0.653 -12.277)" fill="#19538d"/>
            <path id="Trazado_998450" data-name="Trazado 998450" d="M110.835,87.933h6.025c.484-.964.923-1.952,1.34-2.953h-5.792c-.487,1.007-1.008,1.994-1.573,2.953" transform="translate(-27.709 -21.189)" fill="#19538d"/>
            <path id="Trazado_998451" data-name="Trazado 998451" d="M95.384,46.081a46.043,46.043,0,0,0-90.011-13.7h5.589A40.752,40.752,0,1,1,87.147,61.291h5.644a45.915,45.915,0,0,0,2.592-15.209" transform="translate(-1.343)" fill="#19538d"/>
            <path id="Trazado_998452" data-name="Trazado 998452" d="M108.562,81.649v2.5h3.277q.594-1.228,1.106-2.5Z" transform="translate(-27.141 -20.358)" fill="#19538d"/>
            <path id="Trazado_998453" data-name="Trazado 998453" d="M126.164,81.649h-4.551q-.444,1.268-.958,2.5h5.509Z" transform="translate(-30.164 -20.358)" fill="#19538d"/>
          </g>
        </g>
        <path id="Trazado_998444" data-name="Trazado 998444" d="M2.2,37.025,0,41.509H13.317l2.2-4.484Z" transform="translate(0 -9.2)" fill="#19538d"/>
      </g>
    </g>
    <g id="Grupo_1181602" data-name="Grupo 1181602" transform="translate(410.887 8426.742)">
      <g id="Grupo_1181594" data-name="Grupo 1181594" transform="translate(5.215 14.906)">
        <path id="Trazado_1000213" data-name="Trazado 1000213" d="M19.079,14.215a1.3,1.3,0,0,1-1.3-1.3v-1.3H5.607v1.3a1.3,1.3,0,0,1-2.607,0V10.3A1.3,1.3,0,0,1,4.3,9H19.079a1.3,1.3,0,0,1,1.3,1.3v2.607A1.3,1.3,0,0,1,19.079,14.215Z" transform="translate(-3 -9)" fill="#fff"/>
      </g>
      <g id="Grupo_1181595" data-name="Grupo 1181595" transform="translate(12.603 15.341)">
        <path id="Trazado_1000214" data-name="Trazado 1000214" d="M8.554,25.764a1.3,1.3,0,0,1-1.3-1.3V10.554a1.3,1.3,0,0,1,2.607,0V24.46A1.3,1.3,0,0,1,8.554,25.764Z" transform="translate(-7.25 -9.25)" fill="#fff"/>
      </g>
      <g id="Grupo_1181596" data-name="Grupo 1181596" transform="translate(10.43 29.682)">
        <path id="Trazado_1000215" data-name="Trazado 1000215" d="M11.649,20.107H7.3a1.3,1.3,0,0,1,0-2.607h4.346a1.3,1.3,0,0,1,0,2.607Z" transform="translate(-6 -17.5)" fill="#fff"/>
      </g>
      <g id="Grupo_1181597" data-name="Grupo 1181597" transform="translate(26.074 14.906)">
        <path id="Trazado_1000216" data-name="Trazado 1000216" d="M24.126,11.607H16.3A1.3,1.3,0,0,1,16.3,9h7.822a1.3,1.3,0,0,1,0,2.607Z" transform="translate(-15 -9)" fill="#fff"/>
      </g>
      <g id="Grupo_1181598" data-name="Grupo 1181598" transform="translate(26.074 21.859)">
        <path id="Trazado_1000217" data-name="Trazado 1000217" d="M24.126,15.607H16.3A1.3,1.3,0,0,1,16.3,13h7.822a1.3,1.3,0,0,1,0,2.607Z" transform="translate(-15 -13)" fill="#fff"/>
      </g>
      <g id="Grupo_1181599" data-name="Grupo 1181599" transform="translate(26.074 28.813)">
        <path id="Trazado_1000218" data-name="Trazado 1000218" d="M24.126,19.607H16.3A1.3,1.3,0,0,1,16.3,17h7.822a1.3,1.3,0,0,1,0,2.607Z" transform="translate(-15 -17)" fill="#fff"/>
      </g>
      <g id="Grupo_1181600" data-name="Grupo 1181600" transform="translate(0 1)">
        <path id="Trazado_1000219" data-name="Trazado 1000219" d="M36.938,39.242H4.78A4.784,4.784,0,0,1,0,34.462V5.78A4.784,4.784,0,0,1,4.78,1H36.938a4.784,4.784,0,0,1,4.78,4.78V34.462A4.784,4.784,0,0,1,36.938,39.242ZM4.78,3.607A2.176,2.176,0,0,0,2.607,5.78V34.462A2.176,2.176,0,0,0,4.78,36.635H36.938a2.176,2.176,0,0,0,2.173-2.173V5.78a2.176,2.176,0,0,0-2.173-2.173Z" transform="translate(0 -1)" fill="#fff"/>
      </g>
      <g id="Grupo_1181601" data-name="Grupo 1181601" transform="translate(0 7.084)">
        <path id="Trazado_1000220" data-name="Trazado 1000220" d="M40.415,7.107H1.3A1.3,1.3,0,0,1,1.3,4.5H40.415a1.3,1.3,0,0,1,0,2.607Z" transform="translate(0 -4.5)" fill="#fff"/>
      </g>
    </g>
  </g>
</svg>
