<svg xmlns="http://www.w3.org/2000/svg" xmlns:xlink="http://www.w3.org/1999/xlink" width="129" height="127" viewBox="0 0 129 127">
  <defs>
    <clipPath id="clip-path">
      <rect id="Rectángulo_454807" data-name="Rectángulo 454807" width="129" height="127" transform="translate(399.059 5904)" fill="#9ecfff"/>
    </clipPath>
  </defs>
  <g id="Grupo_1184266" data-name="Grupo 1184266" transform="translate(-399.059 -4700)">
    <g id="Grupo_1177492" data-name="Grupo 1177492" transform="translate(0 -1204)">
      <rect id="Rectángulo_454806" data-name="Rectángulo 454806" width="129" height="127" transform="translate(399.059 5904)" fill="#9ecfff"/>
      <path id="Rectángulo_454808" data-name="Rectángulo 454808" d="M0,0H79A12,12,0,0,1,91,12V91a0,0,0,0,1,0,0H12A12,12,0,0,1,0,79V0A0,0,0,0,1,0,0Z" transform="translate(417.711 5922)" fill="#fff"/>
      <path id="Trazado_1000750" data-name="Trazado 1000750" d="M129.4,81.449a1.264,1.264,0,0,1-1.26,1.278H83.226a1.264,1.264,0,0,1-1.26-1.278V57.429a1.264,1.264,0,0,1,1.26-1.279h2.817a3.671,3.671,0,0,0,3.52,2.651,3.627,3.627,0,0,0,3.484-2.651h3.076V74.562A2.65,2.65,0,0,0,98.791,77.2h3.039a2.65,2.65,0,0,0,2.668-2.637V56.151h2.372V74.562a2.65,2.65,0,0,0,2.668,2.637h3.076a2.642,2.642,0,0,0,2.631-2.637V56.151h2.409V74.562a2.642,2.642,0,0,0,2.631,2.637h3.076a2.642,2.642,0,0,0,2.631-2.637V56.151h2.149a1.264,1.264,0,0,1,1.26,1.279v24.02ZM89.563,53.5a1.652,1.652,0,1,0,1.631,1.652A1.661,1.661,0,0,0,89.563,53.5Zm8.56-.986V74.562a.657.657,0,0,0,.667.64h3.039a.657.657,0,0,0,.667-.64V52.513a.657.657,0,0,0-.667-.64H98.791A.657.657,0,0,0,98.124,52.513Zm10.747,2.318V74.562a.657.657,0,0,0,.667.64h3.076a.65.65,0,0,0,.63-.64V54.831a.648.648,0,0,0-.63-.639h-3.076A.656.656,0,0,0,108.871,54.831ZM119.655,44.52V74.562a.65.65,0,0,0,.63.64h3.076a.625.625,0,0,0,.63-.64V44.52a.624.624,0,0,0-.63-.639h-3.076a.648.648,0,0,0-.63.639ZM100.31,42a1.645,1.645,0,1,1-1.668,1.639A1.641,1.641,0,0,1,100.31,42Zm10.747,2.318a1.645,1.645,0,1,1-1.631,1.638A1.65,1.65,0,0,1,111.057,44.32Zm10.784-10.312a1.646,1.646,0,1,1-1.668,1.639A1.642,1.642,0,0,1,121.841,34.008Zm6.3,20.144h-2.149V44.52a2.643,2.643,0,0,0-2.631-2.638h-3.076a2.643,2.643,0,0,0-2.631,2.638v9.632h-2.52a2.628,2.628,0,0,0-2.52-1.959h-3.076a2.639,2.639,0,0,0-2.557,1.959H104.5V52.513a2.65,2.65,0,0,0-2.668-2.637H98.791a2.651,2.651,0,0,0-2.668,2.637v1.639H93.047a3.625,3.625,0,0,0-.371-.879l5.966-6.381a3.654,3.654,0,0,0,4.892-1.533l3.891.84a3.645,3.645,0,1,0,6.856-1.946l5.707-5.447a3.637,3.637,0,1,0-1.408-1.453l-5.67,5.462a3.681,3.681,0,0,0-5.077,1.439l-3.891-.851A3.637,3.637,0,1,0,97.2,45.52l-5.966,6.394a3.651,3.651,0,0,0-5.188,2.238H83.226a3.283,3.283,0,0,0-3.261,3.278v24.02a3.282,3.282,0,0,0,3.261,3.277H96.234L89.6,95.957H88.34a1,1,0,0,0,0,2h3.632a1,1,0,1,0-.074-2l6.633-11.23h6.152v11.23h-.815a1,1,0,1,0,0,2H107.5a1,1,0,1,0,0-2h-.815V84.727H112.8l6.671,11.23a1,1,0,1,0-.074,2h3.632a1,1,0,1,0,0-2h-1.26l-6.633-11.23h13.008a3.258,3.258,0,0,0,3.261-3.277V57.429a3.26,3.26,0,0,0-3.261-3.277ZM91.713,74.562V64.023a.616.616,0,0,0-.63-.638H88.007a.639.639,0,0,0-.63.638V74.562a.65.65,0,0,0,.63.64h3.076A.625.625,0,0,0,91.713,74.562Zm-.63-13.176H88.007a2.643,2.643,0,0,0-2.631,2.638V74.562A2.642,2.642,0,0,0,88.007,77.2h3.076a2.642,2.642,0,0,0,2.631-2.637V64.023A2.643,2.643,0,0,0,91.083,61.385Z" transform="translate(358.036 5902.926)" fill="#19538d" fill-rule="evenodd"/>
    </g>
    <path id="Trazado_998457" data-name="Trazado 998457" d="M21.193,13.724H3.483l2.43-5.5h17.71Z" transform="translate(406.088 4714.021)" fill="#fff"/>
    <path id="Trazado_998459" data-name="Trazado 998459" d="M21.193,13.724H3.483l2.43-5.5h17.71Z" transform="translate(497.088 4790.021)" fill="#fff"/>
    <path id="Trazado_998458" data-name="Trazado 998458" d="M21.193,13.724H3.483l2.43-5.5h17.71Z" transform="translate(401.088 4719.524)" fill="#9ecfff"/>
    <path id="Trazado_998461" data-name="Trazado 998461" d="M18.607,11.366H3.483L4.872,8.221H20Z" transform="translate(494.518 4795.524)" fill="#9ecfff"/>
    <path id="Trazado_998462" data-name="Trazado 998462" d="M18.607,11.366H3.483L4.872,8.221H20Z" transform="translate(497.088 4734.779)" fill="#9ecfff"/>
    <path id="Trazado_998463" data-name="Trazado 998463" d="M18.607,11.366H3.483L4.872,8.221H20Z" transform="translate(402.902 4780.779)" fill="#9ecfff"/>
  </g>
</svg>
