<svg xmlns="http://www.w3.org/2000/svg" xmlns:xlink="http://www.w3.org/1999/xlink" width="129" height="127" viewBox="0 0 129 127">
  <defs>
    <clipPath id="clip-path">
      <rect id="Rectángulo_454807" data-name="Rectángulo 454807" width="129" height="127" transform="translate(399.059 5904)" fill="#9ecfff"/>
    </clipPath>
  </defs>
  <g id="Grupo_1184267" data-name="Grupo 1184267" transform="translate(-399.059 -4700)">
    <g id="Grupo_1177492" data-name="Grupo 1177492" transform="translate(0 -1204)">
      <rect id="Rectángulo_454806" data-name="Rectángulo 454806" width="129" height="127" transform="translate(399.059 5904)" fill="#9ecfff"/>
      <path id="Rectángulo_454808" data-name="Rectángulo 454808" d="M0,0H79A12,12,0,0,1,91,12V91a0,0,0,0,1,0,0H12A12,12,0,0,1,0,79V0A0,0,0,0,1,0,0Z" transform="translate(418.059 5922)" fill="#fff"/>
      <g id="Grupo_1182387" data-name="Grupo 1182387" transform="translate(434.628 5938.627)">
        <path id="Trazado_1000751" data-name="Trazado 1000751" d="M57.07,12.451a.923.923,0,0,0-.049-.247c-.01-.031-.018-.061-.031-.091a.967.967,0,0,0-.193-.282L45.248.282a.947.947,0,0,0-.283-.193c-.029-.013-.058-.021-.087-.031a.947.947,0,0,0-.252-.05c-.016,0-.034-.008-.054-.008H15.7a4.818,4.818,0,0,0-4.812,4.812V11.9a18.25,18.25,0,0,0,0,33.4v7.642A4.818,4.818,0,0,0,15.7,57.745H52.27a4.817,4.817,0,0,0,4.812-4.812V12.511c0-.021-.01-.039-.012-.061Zm-3.274-.9H46.5a.962.962,0,0,1-.962-.962v-7.3ZM1.945,28.594A16.34,16.34,0,0,1,18.307,12.232q.821,0,1.625.079A16.317,16.317,0,0,1,34.466,26.143a16.522,16.522,0,0,1,.2,2.45,16.361,16.361,0,0,1-32.721,0ZM29.484,43.051c.132-.1.262-.2.391-.308a18.012,18.012,0,0,0,1.364-1.218,18.09,18.09,0,0,0,1.218-1.363c.1-.129.206-.26.308-.391.117-.152.243-.3.354-.452l8.2,8.214a2.865,2.865,0,0,1,0,4.072,2.932,2.932,0,0,1-4.075,0l-8.215-8.2c.155-.113.3-.238.452-.354ZM52.27,55.821H15.7a2.887,2.887,0,0,1-2.887-2.887v-6.89c.06.019.122.032.183.05.154.047.31.085.466.128.36.1.723.193,1.089.265.18.038.36.072.542.1.367.064.736.115,1.108.158.166.019.329.042.5.056.533.046,1.07.075,1.612.075a18.166,18.166,0,0,0,9.065-2.415l8.51,8.5a4.812,4.812,0,1,0,6.8-6.8l-8.506-8.511a18.16,18.16,0,0,0,2.415-9.065q0-.914-.088-1.814a18.282,18.282,0,0,0-18.2-16.472c-.542,0-1.078.03-1.612.075-.166.015-.331.038-.5.057q-.555.062-1.1.158-.274.048-.547.1c-.362.075-.721.164-1.077.262-.16.043-.32.082-.481.13-.06.018-.12.031-.18.05V4.812A2.887,2.887,0,0,1,15.7,1.925H43.609v8.662A2.887,2.887,0,0,0,46.5,13.474h8.662V52.933a2.887,2.887,0,0,1-2.887,2.887Zm0,0" fill="#19538d"/>
        <path id="Trazado_1000752" data-name="Trazado 1000752" d="M161.586,48.962a.962.962,0,0,0-.962-.962H139.45a.962.962,0,0,0,0,1.925h21.173A.962.962,0,0,0,161.586,48.962Zm0,0" transform="translate(-121.827 -42.226)" fill="#19538d"/>
        <path id="Trazado_1000753" data-name="Trazado 1000753" d="M327,192H315.45a.962.962,0,1,0,0,1.925H327A.962.962,0,0,0,327,192Zm0,0" transform="translate(-276.654 -168.902)" fill="#19538d"/>
        <path id="Trazado_1000754" data-name="Trazado 1000754" d="M327,240H315.45a.962.962,0,1,0,0,1.925H327A.962.962,0,0,0,327,240Zm0,0" transform="translate(-276.654 -211.127)" fill="#19538d"/>
        <path id="Trazado_1000755" data-name="Trazado 1000755" d="M320.924,288.962a.962.962,0,0,0-.962-.962H307.45a.962.962,0,0,0,0,1.925h12.512A.962.962,0,0,0,320.924,288.962Zm0,0" transform="translate(-269.616 -253.353)" fill="#19538d"/>
        <path id="Trazado_1000756" data-name="Trazado 1000756" d="M349.075,336.962a.962.962,0,0,0-.962-.962H339.45a.962.962,0,1,0,0,1.925h8.662A.962.962,0,0,0,349.075,336.962Zm0,0" transform="translate(-297.767 -295.578)" fill="#19538d"/>
        <path id="Trazado_1000757" data-name="Trazado 1000757" d="M260.112,96.962A.962.962,0,0,0,259.15,96h-7.7a.962.962,0,1,0,0,1.925h7.7A.962.962,0,0,0,260.112,96.962Zm0,0" transform="translate(-220.353 -84.451)" fill="#19538d"/>
        <path id="Trazado_1000758" data-name="Trazado 1000758" d="M306.849,144.962a.962.962,0,0,0-.962-.962H291.45a.962.962,0,1,0,0,1.925h14.436A.962.962,0,0,0,306.849,144.962Zm0,0" transform="translate(-255.541 -126.676)" fill="#19538d"/>
        <path id="Trazado_1000759" data-name="Trazado 1000759" d="M115.45,185.925h6.737a.962.962,0,1,0,0-1.925H115.45a.962.962,0,1,0,0,1.925Zm0,0" transform="translate(-100.715 -161.864)" fill="#19538d"/>
        <path id="Trazado_1000760" data-name="Trazado 1000760" d="M98.849,232.962a.962.962,0,0,0-.962-.962H83.45a.962.962,0,0,0,0,1.925H97.887A.962.962,0,0,0,98.849,232.962Zm0,0" transform="translate(-72.564 -204.09)" fill="#19538d"/>
        <path id="Trazado_1000761" data-name="Trazado 1000761" d="M122.187,280H115.45a.962.962,0,0,0,0,1.925h6.737a.962.962,0,1,0,0-1.925Zm0,0" transform="translate(-100.715 -246.315)" fill="#19538d"/>
        <path id="Trazado_1000762" data-name="Trazado 1000762" d="M53.441,144.843a14.114,14.114,0,0,0,5.615-5.446c.076-.133.159-.262.23-.4.037-.07.066-.141.1-.211.146-.281.289-.562.414-.85s.226-.561.328-.844c.03-.082.067-.162.1-.244a14.444,14.444,0,1,0-6.786,8Zm-12.848-1.715a12.417,12.417,0,0,1-2.85-2.135,12.672,12.672,0,0,1-1.571-1.91q-.341-.51-.629-1.048a12.512,12.512,0,1,1,22.047.056v.008a12.3,12.3,0,0,1-5.055,5.052,12.476,12.476,0,0,1-11.944-.018Zm0,0" transform="translate(-28.284 -103.555)" fill="#19538d"/>
        <path id="Trazado_1000763" data-name="Trazado 1000763" d="M385.225,384a.962.962,0,0,0-.962.962v3.85a.962.962,0,0,1-.962.962h-3.85a.962.962,0,1,0,0,1.925h3.85a2.887,2.887,0,0,0,2.887-2.887v-3.85A.962.962,0,0,0,385.225,384Zm0,0" transform="translate(-332.955 -337.804)" fill="#19538d"/>
      </g>
    </g>
    <path id="Trazado_998457" data-name="Trazado 998457" d="M21.193,13.724H3.483l2.43-5.5h17.71Z" transform="translate(406.088 4714.021)" fill="#fff"/>
    <path id="Trazado_998459" data-name="Trazado 998459" d="M21.193,13.724H3.483l2.43-5.5h17.71Z" transform="translate(497.088 4790.021)" fill="#fff"/>
    <path id="Trazado_998458" data-name="Trazado 998458" d="M21.193,13.724H3.483l2.43-5.5h17.71Z" transform="translate(401.088 4719.524)" fill="#9ecfff"/>
    <path id="Trazado_998461" data-name="Trazado 998461" d="M18.607,11.366H3.483L4.872,8.221H20Z" transform="translate(494.518 4795.524)" fill="#9ecfff"/>
    <path id="Trazado_998462" data-name="Trazado 998462" d="M18.607,11.366H3.483L4.872,8.221H20Z" transform="translate(497.088 4734.779)" fill="#9ecfff"/>
    <path id="Trazado_998463" data-name="Trazado 998463" d="M18.607,11.366H3.483L4.872,8.221H20Z" transform="translate(402.902 4780.779)" fill="#9ecfff"/>
  </g>
</svg>
